<?xml version="1.0" encoding="UTF-8" standalone="no"?>

<svg
   xml:space="preserve"
   id="svg5"
   version="1.1"
   viewBox="0 0 50 50"
   height="50mm"
   width="50mm"
   xmlns="http://www.w3.org/2000/svg"
   xmlns:svg="http://www.w3.org/2000/svg"><defs
     id="defs2"><rect
       x="341.01865"
       y="385.832"
       width="113.67288"
       height="76.51059"
       id="rect363" /><rect
       x="341.01865"
       y="385.832"
       width="113.67288"
       height="76.51059"
       id="rect363-5" /></defs><g
     id="layer1"
     transform="translate(-80,-40)"><circle
       style="fill:#808080;stroke-width:0.265965"
       id="path111-3-88"
       cx="105"
       cy="65.055893"
       r="25" /><circle
       style="fill:#cccccc;stroke-width:0.212772"
       id="path111-3-8-3"
       cx="105"
       cy="65.055893"
       r="20" /><path
       d="m 104.99998,80.055893 q -5.249985,-1.312498 -8.624975,-6.093749 -3.37501,-4.78125 -3.37501,-10.48125 v -8.925001 l 11.999985,-4.5 12.00003,4.5 v 8.925001 q 0,5.7 -3.37501,10.48125 -3.37499,4.781251 -8.62502,6.093749 z m 0,-2.324999 q 4.31253,-1.424999 7.03125,-5.381249 2.71878,-3.95625 2.71878,-8.868751 v -7.350001 l -9.75003,-3.674999 -9.749985,3.674999 v 7.350001 q 0,4.912501 2.71874,8.868751 2.718765,3.95625 7.031245,5.381249 z m 0,-12.6375 z"
       id="path1077"
       style="stroke-width:0.0375001" /></g></svg>
