<?xml version="1.0" encoding="UTF-8" standalone="no"?>

<svg
   xml:space="preserve"
   id="svg5"
   version="1.1"
   viewBox="0 0 50 50"
   height="50mm"
   width="50mm"
   xmlns="http://www.w3.org/2000/svg"
   xmlns:svg="http://www.w3.org/2000/svg"><defs
     id="defs2"><rect
       x="341.01865"
       y="385.832"
       width="113.67288"
       height="76.51059"
       id="rect363" /><rect
       x="341.01865"
       y="385.832"
       width="113.67288"
       height="76.51059"
       id="rect363-5" /></defs><g
     id="layer1"
     transform="translate(-80,-40)"><circle
       style="fill:#808080;stroke-width:0.265965"
       id="path111-3-88"
       cx="105"
       cy="65"
       r="25" /><circle
       style="fill:#cccccc;stroke-width:0.212772"
       id="path111-3-8-3"
       cx="105"
       cy="65"
       r="20" /><path
       d="m 110.48296,78.771849 -10.92431,-3.557734 -7.435187,2.71612 Q 91.417348,78.274526 90.731954,77.892063 90.04659,77.509486 90.04659,76.744392 V 55.397978 q 0,-0.497321 0.311472,-0.87987 0.311472,-0.382575 0.809982,-0.573836 l 8.390546,-2.716121 10.92431,3.519473 7.39367,-2.71612 q 0.70612,-0.306032 1.39148,0.05726 0.68536,0.363433 0.68536,1.128529 v 21.614221 q 0,0.420805 -0.31147,0.726837 -0.31148,0.306063 -0.76841,0.459064 z m -1.41227,-2.869152 V 56.583791 l -8.14129,-2.524834 v 19.318906 z m 2.49224,0 5.89829,-1.797995 V 54.518021 l -5.89829,2.065768 z M 92.538832,75.443634 98.43716,73.377863 V 54.058957 l -5.898328,1.797995 z M 111.56293,56.583791 V 75.902697 Z M 98.43716,54.058957 v 19.318906 z"
       id="path798"
       style="stroke-width:0.0398626" /></g></svg>
