<?xml version="1.0" encoding="UTF-8" standalone="no"?>
<svg
   xml:space="preserve"
   id="svg5"
   version="1.1"
   viewBox="0 0 50 50"
   height="50mm"
   width="50mm"
   xmlns="http://www.w3.org/2000/svg"
   xmlns:svg="http://www.w3.org/2000/svg"><defs
     id="defs2"><rect
       x="341.01865"
       y="385.832"
       width="113.67288"
       height="76.51059"
       id="rect363" /><rect
       x="341.01865"
       y="385.832"
       width="113.67288"
       height="76.51059"
       id="rect363-5" /></defs><g
     id="layer1"
     transform="translate(-80,-40)"><circle
       style="fill:#808080;stroke-width:0.265965"
       id="path111-3-88-8"
       cx="105"
       cy="65"
       r="25" /><circle
       style="fill:#cccccc;stroke-width:0.212772"
       id="path111-3-8-3-8"
       cx="105"
       cy="65"
       r="20" /><rect
       style="opacity:1;fill:#000000;stroke-width:0.305968"
       id="rect1368"
       width="37.575268"
       height="2.5619502"
       x="101.39405"
       y="-29.62179"
       transform="rotate(45.051846)" /><path
       d="m 105.00001,79.432033 -2.03003,-1.82 q -3.534994,-3.185 -5.844984,-5.49501 -2.30999,-2.31 -3.674997,-4.14751 -1.36501,-1.83749 -1.90753,-3.3775 Q 91,63.052013 91,61.442013 q 0,-3.29 2.20501,-5.495009 2.204956,-2.205004 5.494996,-2.205004 1.819974,0 3.465004,0.770001 1.64497,0.770003 2.835,2.170003 1.19003,-1.4 2.835,-2.170003 1.64503,-0.770001 3.46503,-0.770001 3.28999,0 5.49496,2.205004 2.20501,2.205009 2.20501,5.495009 0,1.61 -0.54247,3.15 -0.54252,1.54001 -1.90753,3.3775 -1.36501,1.83751 -3.675,4.14751 -2.30999,2.31 -5.84497,5.49501 z m 0,-3.78001 q 3.36,-3.01 5.52999,-5.1625 2.17002,-2.15251 3.43001,-3.745 1.26002,-1.59251 1.75,-2.83501 0.48997,-1.2425 0.48997,-2.4675 0,-2.10001 -1.40003,-3.500007 -1.39998,-1.4 -3.49995,-1.4 -1.64503,0 -3.04502,0.927498 -1.40004,0.927509 -1.92504,2.362509 h -2.65996 q -0.5249,-1.435 -1.92504,-2.362509 -1.39999,-0.927498 -3.044974,-0.927498 -2.10004,0 -3.50001,1.4 -1.400037,1.399997 -1.400037,3.500007 0,1.225 0.48997,2.4675 0.48999,1.2425 1.750007,2.83501 1.25998,1.59249 3.43002,3.745 2.169984,2.1525 5.529984,5.1625 z m 0,-9.55501 z"
       id="path420"
       style="stroke-width:0.035" /></g></svg>
