<?xml version="1.0" encoding="UTF-8" standalone="no"?>
<svg
   xml:space="preserve"
   id="svg5"
   version="1.1"
   viewBox="0 0 50 50"
   height="50mm"
   width="50mm"

   xmlns="http://www.w3.org/2000/svg"
   xmlns:svg="http://www.w3.org/2000/svg"><defs
     id="defs2"><rect
       x="341.01865"
       y="385.832"
       width="113.67288"
       height="76.51059"
       id="rect363" /><rect
       x="341.01865"
       y="385.832"
       width="113.67288"
       height="76.51059"
       id="rect363-5" /></defs><g
     id="layer1"
     transform="translate(-80,-40)"><circle
       style="fill:#808080;stroke-width:0.265965"
       id="path111-3-88"
       cx="105"
       cy="65"
       r="25" /><circle
       style="fill:#cccccc;stroke-width:0.212772"
       id="path111-3-8-3"
       cx="105"
       cy="65"
       r="20" /><path
       d="m 105,79.432516 -2.03003,-1.82 q -3.534982,-3.185002 -5.844972,-5.495008 -2.30999,-2.310001 -3.675,-4.147505 -1.36501,-1.837499 -1.90753,-3.377504 -0.542469,-1.540002 -0.542469,-3.150004 0,-3.29 2.20501,-5.495005 2.20496,-2.205004 5.495,-2.205004 1.819961,0 3.464991,0.770001 1.64497,0.770003 2.835,2.170003 1.19003,-1.4 2.835,-2.170003 1.64503,-0.770001 3.46503,-0.770001 3.28999,0 5.49496,2.205004 Q 119,58.152495 119,61.442495 q 0,1.610002 -0.54247,3.150004 -0.54252,1.540005 -1.90753,3.377504 -1.36501,1.837504 -3.675,4.147505 -2.30999,2.310006 -5.84497,5.495008 z m 0,-3.780003 q 3.36,-3.010003 5.52999,-5.162506 2.17002,-2.152504 3.43001,-3.745003 1.26002,-1.592505 1.75,-2.835008 0.48997,-1.242498 0.48997,-2.467502 0,-2.100002 -1.40003,-3.500002 -1.39998,-1.4 -3.49995,-1.4 -1.64503,0 -3.04502,0.927498 -1.40004,0.927504 -1.92504,2.362506 h -2.65996 q -0.5249,-1.435002 -1.92504,-2.362506 -1.39999,-0.927498 -3.044962,-0.927498 -2.100039,0 -3.50001,1.4 -1.40004,1.4 -1.40004,3.500002 0,1.225004 0.48997,2.467502 0.48999,1.242503 1.75001,2.835008 1.25998,1.592499 3.43002,3.745003 2.169972,2.152503 5.529972,5.162506 z m 0,-9.555011 z"
       id="path420"
       style="stroke-width:0.035" /></g></svg>
