<?xml version="1.0" encoding="UTF-8" standalone="no"?>

<svg
   xml:space="preserve"
   id="svg5"
   version="1.1"
   viewBox="0 0 50 50"
   height="50mm"
   width="50mm"
   xmlns="http://www.w3.org/2000/svg"
   xmlns:svg="http://www.w3.org/2000/svg"><defs
     id="defs2"><rect
       x="341.01865"
       y="385.832"
       width="113.67288"
       height="76.51059"
       id="rect363" /><rect
       x="341.01865"
       y="385.832"
       width="113.67288"
       height="76.51059"
       id="rect363-5" /></defs><g
     id="layer1"
     transform="translate(-80,-40)"><circle
       style="fill:#808080;stroke-width:0.265965"
       id="path111-3-88-8"
       cx="105"
       cy="65"
       r="25" /><circle
       style="fill:#cccccc;stroke-width:0.212772"
       id="path111-3-8-3-8"
       cx="105"
       cy="65"
       r="20" /><path
       d="m 110.48297,78.771848 -10.92431,-3.55773 -7.435193,2.71612 q -0.70611,0.34429 -1.39151,-0.0382 -0.68536,-0.38257 -0.68536,-1.14767 v -21.34641 q 0,-0.49732 0.31147,-0.87987 0.31147,-0.38258 0.80998,-0.57384 l 8.390553,-2.71612 10.92431,3.51947 7.39367,-2.71612 q 0.70612,-0.30603 1.39148,0.0573 0.68536,0.36344 0.68536,1.12853 v 21.61422 q 0,0.42081 -0.31147,0.72684 -0.31148,0.30606 -0.76841,0.45907 z m -1.41227,-2.86915 v -19.31891 l -8.14129,-2.52483 v 19.3189 z m 2.49224,0 5.89829,-1.798 v -19.58668 l -5.89829,2.06577 z m -19.024103,-0.45907 5.89833,-2.06577 v -19.3189 l -5.89833,1.79799 z m 19.024103,-18.85984 v 19.31891 z m -13.125773,-2.52483 v 19.3189 z"
       id="path798-3"
       style="fill:#000000;stroke-width:0.0398626" /><rect
       style="opacity:1;fill:#000000;stroke-width:0.305968"
       id="rect1368"
       width="37.575268"
       height="2.5619502"
       x="101.39405"
       y="-29.62179"
       transform="rotate(45.051846)" /></g></svg>
