<?xml version="1.0" encoding="UTF-8" standalone="no"?>

<svg
   xml:space="preserve"
   id="svg5"
   version="1.1"
   viewBox="0 0 50 50"
   height="50mm"
   width="50mm"
   xmlns="http://www.w3.org/2000/svg"
   xmlns:svg="http://www.w3.org/2000/svg"><defs
     id="defs2"><rect
       x="341.01865"
       y="385.832"
       width="113.67288"
       height="76.51059"
       id="rect363" /><rect
       x="341.01865"
       y="385.832"
       width="113.67288"
       height="76.51059"
       id="rect363-5" /></defs><g
     id="layer1"
     transform="translate(-80,-40)"><circle
       style="fill:#ffffff;stroke-width:0.212772"
       id="path111-39"
       cx="105"
       cy="65"
       r="20" /><circle
       style="fill:#808080;stroke-width:0.265965"
       id="path111-3"
       cx="105"
       cy="65"
       r="25" /><circle
       style="fill:#cccccc;stroke-width:0.212772"
       id="path111-3-8"
       cx="105"
       cy="65"
       r="20" /><g
       aria-label="1/2"
       transform="matrix(0.2664105,0,0,0.26666667,-1.5964588,-47.492309)"
       id="text361"
       style="font-size:64px;text-align:center;white-space:pre;shape-inside:url(#rect363);display:inline"><path
         d="m 376.51172,444.22117 h -25.1875 v -4.75 h 9.6875 v -31.1875 h -9.6875 v -4.25 q 1.96875,0 4.21875,-0.3125 2.25,-0.34375 3.40625,-0.96875 1.4375,-0.78125 2.25,-1.96875 0.84375,-1.21875 0.96875,-3.25 h 4.84375 v 41.9375 h 9.5 z"
         id="path705" /><path
         d="m 410.19922,395.59617 -22.40625,58.125 h -5.40625 l 22.3125,-58.125 z"
         id="path707" /><path
         d="m 448.91797,444.22117 h -31.5 v -6.53125 q 3.28125,-2.8125 6.5625,-5.625 3.3125,-2.8125 6.15625,-5.59375 6,-5.8125 8.21875,-9.21875 2.21875,-3.4375 2.21875,-7.40625 0,-3.625 -2.40625,-5.65625 -2.375,-2.0625 -6.65625,-2.0625 -2.84375,0 -6.15625,1 -3.3125,1 -6.46875,3.0625 h -0.3125 v -6.5625 q 2.21875,-1.09375 5.90625,-2 3.71875,-0.90625 7.1875,-0.90625 7.15625,0 11.21875,3.46875 4.0625,3.4375 4.0625,9.34375 0,2.65625 -0.6875,4.96875 -0.65625,2.28125 -1.96875,4.34375 -1.21875,1.9375 -2.875,3.8125 -1.625,1.875 -3.96875,4.15625 -3.34375,3.28125 -6.90625,6.375 -3.5625,3.0625 -6.65625,5.6875 h 25.03125 z"
         id="path709" /></g></g></svg>
