<?xml version="1.0" encoding="UTF-8" standalone="no"?>

<svg
   xml:space="preserve"
   id="svg5"
   version="1.1"
   viewBox="0 0 50 50"
   height="50mm"
   width="50mm"
   xmlns="http://www.w3.org/2000/svg"
   xmlns:svg="http://www.w3.org/2000/svg"><defs
     id="defs2"><rect
       x="341.01865"
       y="385.832"
       width="113.67288"
       height="76.51059"
       id="rect363" /><rect
       x="341.01865"
       y="385.832"
       width="113.67288"
       height="76.51059"
       id="rect363-5" /></defs><g
     id="layer1"
     transform="translate(-80,-40)"><circle
       style="fill:#808080;stroke-width:0.265965"
       id="path111-3-88-8"
       cx="105"
       cy="65"
       r="25" /><circle
       style="fill:#cccccc;stroke-width:0.212772"
       id="path111-3-8-3-8"
       cx="105"
       cy="65"
       r="20" /><path
       d="m 105,73.212502 q 2.47501,0 4.55626,-1.33126 2.08126,-1.33124 3.01876,-3.61874 H 97.424989 q 0.97501,2.2875 3.037511,3.61874 2.06251,1.33126 4.5375,1.33126 z m -6.675011,-10.20002 1.687511,-1.68749 1.68752,1.68749 1.35,-1.34999 -3.03752,-3.0375 -3.03751,3.0375 z m 10.012521,0 1.68749,-1.68749 1.68749,1.68749 1.35,-1.34999 -3.03749,-3.0375 -3.03749,3.0375 z M 105,80.000002 q -3.1125,0 -5.85001,-1.18126 -2.7375,-1.18125 -4.76249,-3.20626 -2.02501,-2.02499 -3.20625,-4.76249 Q 90,68.112492 90,65.000002 q 0,-3.1125 1.18125,-5.85 1.18124,-2.7375 3.20625,-4.76249 2.02499,-2.02501 4.76249,-3.206261 2.73751,-1.181253 5.85001,-1.181253 3.1125,0 5.85,1.181253 2.7375,1.181251 4.76251,3.206261 2.02499,2.02499 3.20624,4.76249 1.18125,2.7375 1.18125,5.85 0,3.11249 -1.18125,5.84999 -1.18125,2.7375 -3.20624,4.76249 -2.02501,2.02501 -4.76251,3.20626 -2.7375,1.18126 -5.85,1.18126 z m 0,-15 z m 0,12.75 q 5.33908,0 9.04456,-3.70545 3.70545,-3.7055 3.70545,-9.04455 0,-5.33906 -3.70545,-9.04456 -3.70548,-3.70545 -9.04456,-3.70545 -5.339071,0 -9.04454,3.70545 -3.70545,3.7055 -3.70545,9.04456 0,5.33905 3.70545,9.04455 3.70547,3.70545 9.04454,3.70545 z"
       id="path922"
       style="stroke-width:0.0375" /><rect
       style="opacity:1;fill:#000000;stroke-width:0.305968"
       id="rect1368"
       width="37.575268"
       height="2.5619502"
       x="101.39405"
       y="-29.62179"
       transform="rotate(45.051846)" /></g></svg>
