<?xml version="1.0" encoding="UTF-8" standalone="no"?>

<svg
   xml:space="preserve"
   id="svg5"
   version="1.1"
   viewBox="0 0 50 50"
   height="50mm"
   width="50mm"
   xmlns="http://www.w3.org/2000/svg"
   xmlns:svg="http://www.w3.org/2000/svg"><defs
     id="defs2"><rect
       x="341.01865"
       y="385.832"
       width="113.67288"
       height="76.51059"
       id="rect363" /><rect
       x="341.01865"
       y="385.832"
       width="113.67288"
       height="76.51059"
       id="rect363-5" /></defs><g
     id="layer1"
     transform="translate(-80,-40)"><circle
       style="fill:#808080;stroke-width:0.265965"
       id="path111-3-88"
       cx="105"
       cy="65.055893"
       r="25" /><circle
       style="fill:#cccccc;stroke-width:0.212772"
       id="path111-3-8-3"
       cx="105"
       cy="65.055893"
       r="20" /><path
       d="m 105,73.268392 q 2.47501,0 4.55626,-1.331262 2.08126,-1.331234 3.01876,-3.618735 H 97.424997 q 0.97501,2.287501 3.037503,3.618735 2.06251,1.331262 4.5375,1.331262 z m -6.675003,-10.200013 1.687503,-1.687491 1.68752,1.687491 1.35,-1.349999 -3.03752,-3.037491 -3.037503,3.037491 z m 10.012513,0 1.68749,-1.687491 1.68749,1.687491 1.35,-1.349999 -3.03749,-3.037491 -3.03749,3.037491 z M 105,80.05589 q -3.1125,0 -5.850002,-1.181253 -2.7375,-1.181253 -4.76249,-3.206265 -2.02501,-2.024985 -3.20625,-4.762486 -1.181255,-2.7375 -1.181255,-5.849996 0,-3.112496 1.181255,-5.849996 1.18124,-2.737501 3.20625,-4.762486 2.02499,-2.025012 4.76249,-3.206265 Q 101.8875,50.05589 105,50.05589 q 3.1125,0 5.85,1.181253 2.7375,1.181253 4.76251,3.206265 2.02499,2.024985 3.20624,4.762486 Q 120,61.943394 120,65.05589 q 0,3.112496 -1.18125,5.849996 -1.18125,2.737501 -3.20624,4.762486 -2.02501,2.025012 -4.76251,3.206265 -2.7375,1.181253 -5.85,1.181253 z m 0,-15 z m 0,12.750001 q 5.33908,0 9.04456,-3.705446 3.70545,-3.705503 3.70545,-9.044555 0,-5.339052 -3.70545,-9.044555 -3.70548,-3.705446 -9.04456,-3.705446 -5.339062,0 -9.044532,3.705446 -3.70545,3.705503 -3.70545,9.044555 0,5.339052 3.70545,9.044555 3.70547,3.705446 9.044532,3.705446 z"
       id="path922"
       style="stroke-width:0.0375" /></g></svg>
