<?xml version="1.0" encoding="UTF-8" standalone="no"?>
<svg
   width="50mm"
   height="50mm"
   viewBox="0 0 50 50"
   version="1.1"
   id="svg5"
   xml:space="preserve"
   xmlns="http://www.w3.org/2000/svg"
   xmlns:svg="http://www.w3.org/2000/svg"><defs
     id="defs2"><rect
       x="341.01865"
       y="385.832"
       width="113.67288"
       height="76.51059"
       id="rect363" /><rect
       x="341.01865"
       y="385.832"
       width="113.67288"
       height="76.51059"
       id="rect363-5" /><rect
       x="341.01865"
       y="385.832"
       width="113.67288"
       height="76.51059"
       id="rect363-3" /><rect
       x="341.01865"
       y="385.832"
       width="113.67288"
       height="76.51059"
       id="rect363-5-8" /></defs><g
     id="layer1"
     transform="translate(-80,-40)"><circle
       style="fill:#ffffff;stroke-width:0.212772"
       id="path111-39"
       cx="105"
       cy="65"
       r="20" /><g
       id="layer1-8"
       transform="translate(58.52319,1.9955569)"><circle
         style="fill:#808080;stroke-width:0.265965"
         id="path111"
         cx="46.47681"
         cy="63.004444"
         r="25" /><circle
         style="fill:#cccccc;stroke-width:0.212772"
         id="path111-39-1"
         cx="46.47681"
         cy="63.004444"
         r="20" /></g></g><g
     id="layer1-0"
     transform="translate(-127.51574,-78.200278)" /><style
     type="text/css"
     id="style306">
	.st0{fill:#000000;}
</style><g
     id="g338"
     transform="matrix(0.06691291,0,0,0.06691291,7.8702955,7.8702961)">
	<path
   class="st0"
   d="M 449.532,105.602 288.463,8.989 C 278.474,2.994 267.235,0 256.011,0 244.772,0 233.528,2.994 223.544,8.989 L 62.475,105.602 c -19.012,11.406 -30.647,31.95 -30.647,54.117 v 192.562 c 0,22.168 11.635,42.711 30.647,54.117 l 161.069,96.613 c 9.984,5.988 21.228,8.989 32.467,8.989 11.225,0 22.463,-3.001 32.452,-8.989 l 161.069,-96.613 c 19.012,-11.406 30.64,-31.949 30.64,-54.117 V 159.719 c 0,-22.167 -11.628,-42.711 -30.64,-54.117 z M 250.599,492.733 c -6.029,-0.745 -11.93,-2.719 -17.32,-5.948 L 72.21,390.172 C 58.904,382.183 50.754,367.803 50.754,352.281 V 159.719 c 0,-6.022 1.236,-11.862 3.518,-17.233 L 250.6,260.246 V 492.733 Z M 59.669,133.114 c 3.364,-4.464 7.593,-8.318 12.541,-11.285 L 233.279,25.216 c 6.995,-4.196 14.85,-6.291 22.732,-6.291 7.868,0 15.723,2.095 22.718,6.291 l 161.069,96.613 c 4.941,2.967 9.184,6.821 12.54,11.285 L 256.011,250.881 Z m 401.585,219.167 c 0,15.522 -8.15,29.902 -21.456,37.891 l -161.069,96.613 c -5.398,3.229 -11.292,5.203 -17.321,5.948 V 260.246 l 196.328,-117.76 c 2.283,5.37 3.518,11.211 3.518,17.233 z"
   id="path308" />
	<path
   class="st0"
   d="m 160.209,119.875 c -9.828,-7.278 -26.021,-7.465 -36.165,-0.41 -10.144,7.056 -10.399,18.67 -0.57,25.947 9.828,7.277 26.022,7.459 36.159,0.41 10.15,-7.056 10.405,-18.67 0.576,-25.947 z"
   id="path310" />
	<path
   class="st0"
   d="m 279.159,48.686 c -9.829,-7.277 -26.022,-7.458 -36.172,-0.403 -10.137,7.049 -10.393,18.664 -0.564,25.941 9.829,7.284 26.022,7.458 36.159,0.416 10.15,-7.062 10.405,-18.677 0.577,-25.954 z"
   id="path312" />
	<path
   class="st0"
   d="m 220.59,82.024 c -9.834,-7.27 -26.028,-7.458 -36.172,-0.403 -10.15,7.049 -10.406,18.664 -0.571,25.941 9.829,7.284 26.022,7.458 36.166,0.416 10.138,-7.062 10.399,-18.676 0.577,-25.954 z"
   id="path314" />
	<path
   class="st0"
   d="m 267.437,184.754 c -9.828,-7.277 -26.015,-7.459 -36.159,-0.41 -10.15,7.056 -10.405,18.671 -0.577,25.947 9.828,7.284 26.021,7.459 36.172,0.41 10.137,-7.056 10.392,-18.67 0.564,-25.947 z"
   id="path316" />
	<path
   class="st0"
   d="m 386.385,113.564 c -9.828,-7.271 -26.021,-7.458 -36.158,-0.403 -10.151,7.049 -10.406,18.664 -0.577,25.941 9.828,7.284 26.02,7.458 36.172,0.416 10.137,-7.062 10.392,-18.676 0.563,-25.954 z"
   id="path318" />
	<path
   class="st0"
   d="m 327.817,146.903 c -9.829,-7.27 -26.022,-7.458 -36.172,-0.403 -10.137,7.049 -10.392,18.664 -0.564,25.941 9.828,7.284 26.021,7.465 36.158,0.416 10.152,-7.062 10.407,-18.669 0.578,-25.954 z"
   id="path320" />
	<path
   class="st0"
   d="m 89.289,248.303 c 11.158,6.083 20.194,1.961 20.194,-9.19 0,-11.158 -9.036,-25.128 -20.194,-31.21 -11.157,-6.083 -20.207,-1.967 -20.207,9.19 -10e-4,11.151 9.049,25.128 20.207,31.21 z"
   id="path322" />
	<path
   class="st0"
   d="m 202.061,309.771 c 11.158,6.082 20.208,1.967 20.208,-9.184 0,-11.157 -9.05,-25.135 -20.208,-31.217 -11.15,-6.076 -20.194,-1.961 -20.194,9.198 0,11.151 9.044,25.121 20.194,31.203 z"
   id="path324" />
	<path
   class="st0"
   d="m 89.289,361.082 c 11.158,6.076 20.194,1.967 20.194,-9.19 0,-11.158 -9.036,-25.129 -20.194,-31.21 -11.157,-6.083 -20.207,-1.968 -20.207,9.19 -10e-4,11.157 9.049,25.128 20.207,31.21 z"
   id="path326" />
	<path
   class="st0"
   d="m 202.061,422.55 c 11.158,6.082 20.208,1.967 20.208,-9.191 0,-11.151 -9.05,-25.128 -20.208,-31.21 -11.15,-6.076 -20.194,-1.961 -20.194,9.19 0,11.158 9.044,25.129 20.194,31.211 z"
   id="path328" />
	<path
   class="st0"
   d="m 145.675,335.424 c 11.158,6.082 20.201,1.967 20.201,-9.191 0,-11.151 -9.044,-25.128 -20.201,-31.204 -11.158,-6.082 -20.201,-1.967 -20.201,9.185 0,11.156 9.043,25.127 20.201,31.21 z"
   id="path330" />
	<path
   class="st0"
   d="m 418.341,207.902 c -11.158,6.082 -20.208,20.053 -20.208,31.21 0,11.151 9.05,15.273 20.208,9.19 11.144,-6.082 20.194,-20.059 20.194,-31.21 0,-11.157 -9.049,-15.273 -20.194,-9.19 z"
   id="path332" />
	<path
   class="st0"
   d="m 305.555,382.149 c -11.158,6.082 -20.194,20.059 -20.194,31.21 0,11.158 9.036,15.273 20.194,9.191 11.158,-6.082 20.194,-20.053 20.194,-31.211 0,-11.151 -9.035,-15.265 -20.194,-9.19 z"
   id="path334" />
	<path
   class="st0"
   d="m 361.948,295.028 c -11.158,6.076 -20.207,20.053 -20.207,31.204 0,11.158 9.05,15.273 20.207,9.191 11.158,-6.083 20.194,-20.053 20.194,-31.21 0,-11.151 -9.036,-15.266 -20.194,-9.185 z"
   id="path336" />
</g></svg>
