<?xml version="1.0" encoding="UTF-8" standalone="no"?>
<svg
   height="48.800335"
   viewBox="0 -960 976.00662 976.0067"
   width="48.800331"
   version="1.1"
   id="svg60"
   xml:space="preserve"
   xmlns="http://www.w3.org/2000/svg"
   xmlns:svg="http://www.w3.org/2000/svg"><defs
     id="defs64"><rect
       x="341.01865"
       y="385.832"
       width="113.67288"
       height="76.51059"
       id="rect363" /><rect
       x="341.01865"
       y="385.832"
       width="113.67288"
       height="76.51059"
       id="rect363-5" /><rect
       x="341.01865"
       y="385.832"
       width="113.67288"
       height="76.51059"
       id="rect363-3" /><rect
       x="341.01865"
       y="385.832"
       width="113.67288"
       height="76.51059"
       id="rect363-5-8" /></defs><path
     d="M 299.62648,-92.207362 V -282.10202 H 111.24965 v -379.78932 h 188.37683 v -189.89465 h 376.75364 v 189.89465 h 188.37682 v 379.78932 H 676.38012 V -92.207362 Z M 167.76271,-500.48088 h 207.2145 q 7.13571,0 13.55748,3.42855 6.42177,3.42855 9.98962,8.91461 l 43.32667,66.46313 56.51305,-172.80414 q 2.90382,-8.54526 10.52743,-14.2421 7.62361,-5.69684 17.06223,-5.69684 7.26005,0 12.91135,3.79789 5.65131,3.7979 10.36073,9.49474 l 66.87377,100.64416 H 808.24389 V -604.92294 H 619.86707 V -794.81759 H 356.13953 v 189.89465 H 167.76271 Z m 188.37682,351.30512 h 263.72754 v -189.89466 h 188.37682 v -104.44206 h -207.2145 q -7.53507,0 -13.18638,-3.79789 -5.6513,-3.7979 -10.36072,-9.49474 l -43.32667,-65.51365 -57.45493,172.80414 q -2.80116,8.54525 -10.50577,14.24209 -7.70367,5.69684 -16.80887,5.69684 -7.53507,0 -13.18637,-3.79789 -5.65131,-3.79789 -9.41885,-9.49473 L 359.90706,-443.51248 H 167.76271 v 104.44206 H 356.13953 Z M 488.0033,-471.99668 Z"
     fill="#fd3311"
     id="path2473"
     style="fill:#000000;stroke:#000000;stroke-width:0.945671" /><g
     id="g2763"
     transform="matrix(59.549364,0,0,61.151092,-215.30517,-1768.8085)"><g
       id="g3298"><ellipse
         style="fill:#ffffff;fill-opacity:1;stroke:#000000;stroke-width:0.537079"
         id="path3234"
         cx="15.048631"
         cy="24.309977"
         rx="2.8242567"
         ry="2.8458707" /><path
         d="m 15.048629,24.709409 q 0.163629,0 0.280155,-0.117333 0.116522,-0.117336 0.116522,-0.2821 0,-0.164765 -0.116522,-0.2821 -0.116526,-0.117333 -0.280155,-0.117333 -0.16363,0 -0.280153,0.117333 -0.116526,0.117335 -0.116526,0.2821 0,0.164764 0.116526,0.2821 0.116523,0.117333 0.280153,0.117333 z m -0.793357,0.798863 h 1.586712 v -0.114835 q 0,-0.119831 -0.06446,-0.219688 -0.06446,-0.09986 -0.178504,-0.149787 -0.128923,-0.05492 -0.26528,-0.08488 -0.136355,-0.02995 -0.285111,-0.02995 -0.148753,0 -0.285114,0.02995 -0.136358,0.02995 -0.265276,0.08488 -0.114043,0.04993 -0.178503,0.149787 -0.06447,0.09986 -0.06447,0.219688 z m 2.082559,0.798864 h -2.578402 q -0.119005,0 -0.208259,-0.08987 -0.08925,-0.08988 -0.08925,-0.2097 v -3.395171 q 0,-0.11983 0.08925,-0.209704 0.08926,-0.08987 0.208259,-0.08987 h 1.690835 l 1.185077,1.193301 v 2.501447 q 0,0.119826 -0.08926,0.209699 -0.08926,0.08987 -0.208257,0.08987 z m 0,-0.299572 v -2.366637 l -1.021447,-1.028534 h -1.556955 v 3.395171 z m -2.578402,0 v -3.395171 z"
         id="path137"
         style="display:inline;stroke-width:0.00497585" /></g></g><style
     type="text/css"
     id="style306">
	.st0{fill:#000000;}
</style></svg>
