<?xml version="1.0" encoding="UTF-8" standalone="no"?>
<!-- Created with Inkscape (http://www.inkscape.org/) -->

<svg
   xml:space="preserve"

   id="svg5"
   version="1.1"
   viewBox="0 0 10.58333 10.599721"
   height="10.599721mm"
   width="10.58333mm"
   xmlns="http://www.w3.org/2000/svg"
   xmlns:svg="http://www.w3.org/2000/svg"><defs
     id="defs2"><rect
       x="341.01865"
       y="385.832"
       width="113.67288"
       height="76.51059"
       id="rect363" /><rect
       x="341.01865"
       y="385.832"
       width="113.67288"
       height="76.51059"
       id="rect363-5" /></defs><g
     id="layer1"
     transform="translate(-107.80342,-52.260968)"><path
       d="m 110.44925,62.852492 v -2.645833 h -2.64583 v -5.291667 h 2.64583 v -2.645833 h 5.29167 v 2.645833 h 2.64583 v 5.291667 h -2.64583 v 2.645833 z m -1.85208,-5.688541 h 2.91041 q 0.10023,0 0.19042,0.04777 0.0902,0.04777 0.14031,0.124209 l 0.60854,0.926041 0.79375,-2.407708 q 0.0408,-0.119062 0.14787,-0.198437 0.10707,-0.07937 0.23964,-0.07937 0.10197,0 0.18135,0.05292 0.0794,0.05292 0.14552,0.132292 l 0.93927,1.402292 h 2.69875 v -1.455209 h -2.64583 V 53.062918 H 111.243 v 2.645833 h -2.64583 z m 2.64583,4.894791 h 3.70417 v -2.645833 h 2.64583 v -1.455208 h -2.91042 q -0.10583,0 -0.1852,-0.05292 -0.0794,-0.05292 -0.14553,-0.132292 l -0.60854,-0.912812 -0.80698,2.407708 q -0.0393,0.119063 -0.14755,0.198438 -0.10821,0.07937 -0.23609,0.07937 -0.10584,0 -0.18521,-0.05292 -0.0794,-0.05292 -0.13229,-0.132292 l -0.93927,-1.402291 h -2.69875 v 1.455208 h 2.64583 z m 1.85208,-4.497916 z"
       fill="#fd3311"
       id="path1861"
       style="fill:#000000;stroke-width:0.0132292" /><rect
       style="opacity:1;fill:#000000;stroke-width:0.114182"
       id="rect1368"
       width="14.02238"
       height="0.95607144"
       x="113.62518"
       y="-39.855865"
       transform="rotate(45.051846)" /></g></svg>
