<?xml version="1.0" encoding="UTF-8" standalone="no"?>
<svg
        width="74.842201mm"
        height="78.168167mm"
        viewBox="0 0 74.842201 78.168167"
        version="1.1"
        id="svg5"
        xml:space="preserve"
        xmlns:xlink="http://www.w3.org/1999/xlink"
        xmlns="http://www.w3.org/2000/svg"><defs
        id="defs2"><linearGradient
       id="linearGradient977"><stop
         style="stop-color:#890000;stop-opacity:1;"
         offset="0.57456142"
         id="stop973" /><stop
        style="stop-color:#000000;stop-opacity:1;"
        offset="1"
        id="stop975" /></linearGradient><radialGradient
        xlink:href="#linearGradient977"
        id="radialGradient979"
        cx="102.95231"
        cy="93.119766"
        fx="102.95231"
        fy="93.119766"
        r="19.999998"
        gradientTransform="matrix(1,0,0,1.1437008,-66.580347,-52.238879)"
        gradientUnits="userSpaceOnUse" /></defs><path
        id="path188"
        style="fill:url(#radialGradient979);fill-opacity:1"
        d="m 36.257543,30.316335 c -6.971484,4.002746 -13.939889,8.010869 -20.902343,12.029297 -0.136694,8.189509 0.07856,16.379554 0.445312,24.560545 6.28966,3.55902 12.465925,7.3274 18.887471,10.64393 1.02227,0.59795 2.39501,0.95202 3.42115,0.15829 6.4727,-3.65981 12.88549,-7.41694 19.32224,-11.14011 V 42.275319 c -6.98286,-4.01264 -13.99801,-7.969817 -20.9043,-12.113281 -0.0898,0.05143 -0.17969,0.102865 -0.26953,0.154297 z m 0.48438,5.570313 c 1.71021,2.527909 3.07073,5.35917 4.66119,8.034086 0.72365,1.073718 1.42042,2.200487 2.04388,3.378023 -4.66265,0.170444 -9.33322,0.179627 -13.998043,0.04883 2.285438,-3.9675 4.527153,-7.969027 6.959823,-11.85718 0.0813,-0.07991 0.24559,0.3298 0.33315,0.396243 z m -7.402348,5.417968 c -1.033634,1.772215 -2.076217,3.540468 -3.13086,5.300782 -2.074426,-0.779029 -3.94526,-1.995587 -5.761718,-3.244141 3.90686,-2.461094 7.836273,-4.898163 11.857422,-7.173828 z m 14.189458,-3.429687 c 3.06742,1.737154 6.12567,3.491254 9.14062,5.318359 -1.93102,1.228154 -3.88822,2.417101 -5.89844,3.511719 -1.23323,-1.804996 -2.04201,-3.863536 -3.32617,-5.640625 -0.97646,-1.571504 -1.88783,-3.182244 -2.78711,-4.798828 0.95703,0.536458 1.91406,1.072917 2.8711,1.609375 z m 10.63476,9.580078 c 0.13499,4.136204 0.0694,8.275196 0.008,12.412109 -1.98552,-3.409875 -3.91209,-6.855595 -5.70507,-10.371093 1.83039,-1.240223 3.72304,-2.359905 5.64257,-3.392578 0.0182,0.45052 0.0365,0.901041 0.0547,1.351562 z M 18.909887,46.210866 c 1.752994,0.858787 3.378104,1.96139 5.018371,3.014735 0.79916,0.258804 0.0757,0.896454 -0.100645,1.391173 -1.661703,3.204761 -3.447383,6.353971 -5.249757,9.463233 -0.08156,-4.454977 -0.155484,-8.916829 0.01953,-13.369141 0.0661,-0.18267 -0.02903,-0.765279 0.312501,-0.5 z m 17.640626,4.414063 h 6.92773 c -2.3619,3.928274 -4.61829,7.918473 -6.90234,11.892578 -0.95506,-1.504046 -1.83266,-3.052117 -2.74308,-4.58336 -0.93316,-1.224577 -1.56685,-2.632605 -2.403404,-3.922499 -0.63968,-1.120178 -1.243389,-2.260313 -1.871094,-3.386719 z m -9.765626,1.607422 c 1.899423,2.942236 3.430767,6.099579 5.151332,9.142486 0.592989,0.93575 1.202449,1.86241 1.749054,2.82626 -2.822616,0.0583 -5.643768,-0.13278 -8.466827,-0.12554 -1.690691,-0.0286 -3.382302,-0.0165 -5.072231,-0.0815 1.531197,-3.32665 3.558712,-6.391709 5.252756,-9.633664 0.420556,-0.77083 0.844489,-1.53981 1.266776,-2.309693 0.03971,0.06055 0.07943,0.121094 0.11914,0.181641 z m 21.972656,4.36914 c 1.30068,2.348514 2.73793,4.627016 3.89063,7.054686 -3.82803,0.56616 -7.67042,0.56574 -11.54761,0.56703 -0.59367,-0.0114 -1.18741,-0.0369 -1.77857,-0.0944 2.20502,-4.03709 4.55665,-7.992535 6.88086,-11.960939 0.85157,1.477864 1.70313,2.955729 2.55469,4.433593 z m -0.22851,10.523436 c 0.57812,0.004 1.15624,0.009 1.73437,0.0137 -4.03567,2.3704 -8.10312,4.68962 -12.25391,6.85352 -0.18098,-2.12444 -0.18469,-4.4684 -0.20703,-6.61719 3.57197,-0.1237 7.14879,-0.26074 10.72657,-0.25 z m -21.044927,0.32227 h 7.291017 c -0.0711,2.16818 -0.18719,4.3359 -0.17578,6.50586 -3.886734,-2.06779 -7.693986,-4.28092 -11.511721,-6.47266 1.465362,-0.0261 2.930965,-0.0235 4.396484,-0.0332 z"
         /><g
        id="layer1"
        transform="translate(-66.580347,-38.857493)"><path
       style="fill:#000000;stroke-width:0.143577"
       d="M 108.21127,90.897408 C 102.53102,90.556465 95.541782,89.428105 87.781841,87.59923 84.263155,86.769937 82.650738,86.479845 78.247824,85.883947 68.753399,84.598956 66.180585,83.303644 66.628716,80.034176 c 0.479972,-3.501782 7.883947,-6.37896 17.703622,-6.879607 2.093408,-0.106724 1.905031,0.0033 2.409336,-1.409806 4.142236,-11.608545 14.044496,-26.921503 19.962046,-30.869526 6.66744,-4.448329 20.14108,-1.156084 24.98133,6.104119 5.40939,8.113864 5.16225,12.798603 -0.43625,8.269991 -3.63557,-2.940793 -4.49261,-2.959623 -10.07164,-0.221255 -2.73926,1.344525 -3.10065,1.45388 -3.33815,1.010104 -0.20422,-0.381588 -0.90056,-0.589408 -1.97493,-0.589408 -1.23268,0 -1.67461,-0.246256 -1.99146,-1.109665 -0.56596,-1.542246 -1.78333,-1.346061 -1.36178,0.21946 0.40111,1.489614 1.21277,2.058531 3.11551,2.183771 1.78523,0.1175 1.8494,0.181555 1.98102,1.977573 0.13896,1.896029 0.61341,4.692683 1.72905,10.191873 0.87683,4.322063 0.92556,4.660792 0.72602,5.046672 -0.40148,0.776373 -1.70833,1.692675 -3.27244,2.294472 -0.71326,0.274425 -0.35435,1.446278 0.37407,1.221349 1.15736,-0.357391 2.76287,-1.508759 3.40471,-2.44164 0.53831,-0.782407 0.21387,-0.789663 4.24099,0.09484 16.52544,3.629587 17.14946,8.433476 1.77935,13.697964 -5.5909,1.914968 -10.94203,2.518262 -18.37785,2.071951 z m 1.72292,-10.179088 c 0.3386,-0.338593 0.35024,-0.433162 0.0961,-0.780769 -0.17497,-0.239293 -0.50514,-0.264592 -3.91246,-0.299815 -7.209564,-0.07453 -11.61131,-0.748698 -14.304664,-2.190896 -0.942577,-0.504721 -0.97003,-0.510208 -1.256296,-0.25114 -1.549642,1.402411 3.962479,3.185677 11.48064,3.714188 2.8539,0.200624 7.62017,0.085 7.89673,-0.191568 z"
       id="path2709" /><path
        style="fill:#000000;stroke:none;stroke-width:0.0201216"
        d="m 80.361199,60.28044 c 1.226898,-0.197178 2.070965,-1.127005 2.307361,-2.069869 0.08962,-0.357415 0.09359,-0.717954 0.07663,-1.079949 -0.01722,-0.367153 -0.112048,-0.729412 -0.112048,-1.097928 0,-0.152989 -0.01722,-0.336647 0.102779,-0.467628 0.196985,-0.214876 0.543763,-0.0607 0.774511,0.01774 0.483859,0.164308 0.868248,0.489619 1.133685,0.845949 0.08496,0.114118 0.227263,0.278442 0.215993,0.413977 0.07431,0.0387 0.100418,0.130998 0.125595,0.197976 0.05813,0.154687 0.113558,0.309395 0.153307,0.467971 0.175175,0.698611 0.129485,1.428054 -0.04499,2.123864 -0.336836,1.343465 -1.235114,2.516969 -2.250091,3.599799 -0.651286,0.694835 -1.351116,1.366768 -2.14531,1.960797 -0.600064,0.448819 -1.25097,0.846305 -1.86705,1.279002 0.210032,0.05297 0.134748,0.295721 0.112474,0.431969 -0.06057,0.370607 -0.330536,0.685406 -0.499356,1.02594 -0.02878,0.0579 -0.07776,0.117361 -0.09664,0.177657 -0.01568,0.04984 0.03123,0.08655 0.05738,0.128379 0.05891,0.09445 0.120157,0.247669 -0.02374,0.305987 0.159016,0.127117 0.340792,0.206259 0.517374,0.314445 0.244586,0.149722 0.44996,0.342158 0.578406,0.567505 0.09092,0.159471 0.197703,0.430529 -0.106011,0.467971 0.02595,0.173875 0.08134,0.346125 0.08954,0.521966 0.02794,0.597204 -0.150463,1.191359 -0.47747,1.727896 -0.132872,0.217962 -0.290427,0.428734 -0.459384,0.629971 -0.0861,0.102501 -0.217704,0.206798 -0.269418,0.32398 -0.05438,0.123249 -0.05924,0.267463 -0.08476,0.395969 -0.05359,0.2698 -0.104811,0.539603 -0.153926,0.809945 -0.07952,0.437563 -0.164571,0.874393 -0.222224,1.313935 -0.02717,0.207159 -0.06448,0.421177 -0.05219,0.629956 0.0091,0.154224 0.03334,0.298246 0.068,0.449978 0.01664,0.07291 0.01122,0.145093 0.04364,0.21598 0.03843,0.08408 0.11472,0.153144 0.161939,0.233986 0.0622,0.106542 0.100418,0.219967 0.170492,0.323981 0.205037,0.304548 0.466517,0.626191 0.546213,0.971946 0.04699,0.203969 -0.007,0.42674 -0.03228,0.629963 -0.04165,0.333347 -0.102333,0.673175 -0.115067,1.007937 -0.0097,0.253098 0.05566,0.521961 0.08654,0.773952 0.05953,0.486156 0.115707,0.986536 0.09256,1.475907 -0.007,0.147126 -0.09194,0.293736 -0.149553,0.431963 -0.09721,0.233549 -0.188993,0.468178 -0.284918,0.701983 -0.198268,0.483276 -0.387492,0.969432 -0.564142,1.457904 -0.12844,0.355107 -0.271756,0.713479 -0.341379,1.07993 -0.05513,0.290161 0.01064,0.609438 0.03437,0.899959 0.0252,0.30922 0.0014,0.626003 0.0014,0.935944 0,1.217795 -0.01064,2.435952 0,3.653773 0.0023,0.26907 0.02496,0.539245 0.02249,0.809961 -0.0014,0.154328 -0.119151,0.288335 -0.179955,0.431962 -0.129524,0.305983 -0.2626,0.646173 -0.269821,0.971953 -0.0081,0.36519 0.126602,0.73902 0.200674,1.09791 0.1804,0.87421 0.430433,1.74537 0.53852,2.62786 0.04823,0.39382 0.06216,0.79303 0.09434,1.18793 0.01987,0.24409 0.06229,0.49244 0.04228,0.73795 -0.04749,0.5828 -0.150404,1.164706 -0.226609,1.745906 -0.02812,0.21425 -0.08209,0.4325 -0.08685,0.64797 -0.006,0.26709 0.04871,0.52754 0.08695,0.79193 0.0867,0.59938 0.222448,1.19801 0.271508,1.79992 0.01664,0.20344 -0.03807,0.39327 -0.06313,0.59395 -0.03363,0.26927 -0.05827,0.5396 -0.07091,0.80995 -0.02963,0.63301 -0.119228,1.27378 -0.04157,1.90789 0.07352,0.60007 0.256214,1.18756 0.37773,1.78188 0.04869,0.23818 0.05987,0.48022 0.09457,0.71997 0.05912,0.40875 0.14638,0.81464 0.196513,1.22391 0.05953,0.48598 0.0029,0.98636 0.0029,1.47594 0,0.60619 0.04803,1.21184 -0.0014,1.81787 -0.04588,0.56319 -0.401281,1.08461 -0.713057,1.58391 -0.129504,0.20731 -0.245235,0.46383 -0.458325,0.62726 -0.236825,0.18133 -0.593161,0.16925 -0.874276,0.069 -0.293825,-0.10487 -0.543337,-0.34267 -0.748059,-0.53438 -0.297738,-0.27864 -0.623639,-0.58516 -0.780225,-0.93594 -0.06359,-0.14224 -0.07269,-0.30094 -0.09424,-0.44997 -0.03987,-0.27575 -0.07093,-0.55274 -0.115378,-0.82796 -0.186457,-1.15426 -0.324979,-2.31591 -0.469574,-3.47378 -0.05846,-0.46814 -0.121512,-0.93594 -0.179956,-1.40391 -0.02835,-0.22687 -0.0759,-0.4561 -0.08656,-0.68396 -0.02829,-0.60532 0.08341,-1.21422 0.111661,-1.81789 0.03284,-0.70251 0.09935,-1.40447 0.15652,-2.10588 0.139122,-1.70737 0.258372,-3.41982 0.338362,-5.129706 0.02361,-0.50504 0.0016,-1.00777 4.7e-4,-1.51193 -0.0012,-0.52663 0.02162,-1.06048 -0.0045,-1.58388 -0.0023,-0.0489 -0.02789,-0.0949 -0.02885,-0.14404 -0.0029,-0.14301 0.04975,-0.28743 0.04968,-0.43199 -1.26e-4,-0.25052 -0.147405,-0.51746 -0.232121,-0.75594 -0.131962,-0.37131 -0.271713,-0.74136 -0.388751,-1.11594 -0.06585,-0.21066 -0.141309,-0.43034 -0.159035,-0.64794 -0.01626,-0.20012 0.01626,-0.412911 0.04062,-0.611967 0.03429,-0.280052 0.04625,-0.565171 0.06914,-0.84597 0.04888,-0.599896 0.06363,-1.198711 0.09173,-1.799868 0.01587,-0.340547 0.03768,-0.683772 0.02169,-1.025966 -0.05686,-1.215636 -0.342413,-2.412032 -0.545292,-3.617765 -0.0634,-0.376713 -0.141871,-0.754867 -0.172776,-1.133919 -0.01219,-0.149184 -0.02717,-0.302225 0.0048,-0.449992 0.03723,-0.171561 0.130956,-0.340524 0.203373,-0.503981 0.164009,-0.370027 0.346416,-0.777167 0.394712,-1.16993 0.04288,-0.348625 0.0095,-0.711655 0.02591,-1.061925 0.01935,-0.413597 0.07212,-0.830101 -0.0062,-1.241923 -0.07288,-0.383735 -0.348285,-0.732746 -0.396153,-1.11594 -0.02831,-0.226861 0.03379,-0.476062 0.06146,-0.701948 0.04455,-0.363762 0.02535,-0.722119 -0.06446,-1.079935 h -0.02249 c -0.04517,0.102807 -0.136742,0.195841 -0.20974,0.287982 -0.166157,0.209679 -0.385579,0.460955 -0.467483,0.701958 -0.09978,0.293568 -0.05765,0.603509 -0.12426,0.899586 -0.02543,0.113174 -0.02373,0.23895 -0.144754,0.320383 -0.158048,0.106489 -0.343559,-0.10391 -0.428635,-0.193938 -0.216959,-0.229948 -0.375683,-0.520519 -0.49218,-0.791945 -0.04128,-0.09618 -0.114758,-0.204278 -0.08999,-0.305974 -0.07965,-0.04414 -0.08712,-0.160732 -0.109553,-0.233986 -0.0687,-0.224444 -0.11081,-0.454484 -0.140902,-0.683966 -0.109243,-0.832816 0.05266,-1.657332 0.393023,-2.447862 0.07855,-0.182491 0.16846,-0.362302 0.262334,-0.539956 0.0381,-0.07214 0.07197,-0.175316 0.157468,-0.215982 l 0.04501,-0.072 c -0.0208,-0.162532 0.18309,-0.363932 0.275041,-0.503974 0.04263,-0.06505 0.06826,-0.128526 0.152359,-0.161992 l 0.134962,-0.251991 0.374808,-0.485964 1.537236,-1.853893 c -0.279002,-0.01543 -0.349207,-0.140901 -0.269622,-0.341974 0.05512,-0.139358 0.135001,-0.271244 0.229108,-0.395987 0.04376,-0.0579 0.133317,-0.131157 0.128827,-0.202657 -0.0056,-0.08828 -0.06127,-0.182337 -0.09581,-0.265311 -0.06791,-0.163072 -0.12219,-0.382294 -0.252747,-0.52088 -0.118841,-0.12604 -0.30865,-0.171174 -0.395119,-0.325068 -0.04832,-0.08609 -0.05773,-0.195995 -0.03125,-0.287979 0.02142,-0.07448 0.101637,-0.140437 0.04863,-0.21598 -0.04381,-0.0624 -0.103476,-0.113042 -0.139954,-0.179972 -0.109765,-0.201243 -0.181426,-0.609997 0.08372,-0.762626 0.05012,-0.0288 0.118377,-0.03501 0.17682,-0.04738 l 0.134962,0.08997 0.08999,0.12604 0.02249,-0.01801 0.02249,0.197976 -0.06748,0.03594 0.04499,-0.01801 c -0.06638,0.156231 0.05457,0.274849 0.202454,0.372945 0.284534,0.188999 0.690132,0.273036 1.034751,0.365015 0.272566,0.07277 0.550733,0.127755 0.832299,0.172795 0.10394,0.01672 0.244719,0.06023 0.350646,0.0429 0.134517,-0.02238 0.27945,-0.131463 0.391675,-0.1917 0.424295,-0.228045 0.740748,-0.503973 1.034751,-0.833884 -0.205328,0.116909 -0.369449,0.281321 -0.584859,0.394885 -0.495735,0.261533 -1.059831,0.343073 -1.642105,0.343073 l 0.02249,-0.05404 h -0.08999 v -0.01801 l 0.06748,-0.03593 c -0.106592,0.02742 -0.193076,0.01077 -0.157468,-0.08997 h 0.02249 v 0.08997 h 0.02249 l -0.02249,-0.144012 0.06748,0.12604 h 0.02249 l -0.02249,-0.161992 h 0.02249 v 0.03593 h 0.02249 c -0.09784,-0.336385 -0.238217,-0.678188 -0.38115,-1.007929 -0.06955,-0.160372 -0.107771,-0.309583 -0.316184,-0.377976 l 0.112475,0.215981 -0.04499,-0.01801 v 0.01801 h 0.08999 l 0.02249,0.197976 c 0.08741,0.02032 0.09858,0.07634 0.08999,0.144013 0.08308,0.04134 0.104617,0.127449 0.139432,0.197976 0.09415,0.19062 0.192882,0.405693 0.197975,0.611962 l -0.157468,-0.01801 v -0.107924 l 0.04499,-0.08997 -0.08999,0.01801 0.02249,-0.05404 h -0.02212 l -0.06748,0.072 -0.06748,-0.08997 0.02249,-0.08997 h -0.08997 l 0.02249,-0.233986 -0.134961,-0.107924 0.06748,-0.01801 v -0.01801 l -0.112474,0.01801 v 0.107925 h -0.02249 l -0.04499,-0.08997 0.06748,-0.01801 v -0.072 -0.01801 l -0.224947,-0.126041 c 0.03005,-0.08238 0.03466,-0.13442 -0.04499,-0.197977 l 0.02249,0.08997 h -0.02249 l -0.02249,-0.08997 h -0.06748 l -0.06748,0.072 -0.112475,-0.05404 v -0.01801 l 0.04499,-0.01801 v -0.01801 l -0.04499,-0.144014 -0.157468,-0.12604 0.134962,0.01801 c -0.06913,-0.08966 -0.140999,-0.240467 -0.29243,-0.233987 l 0.08999,-0.05404 c -0.01916,-0.04862 -0.01916,-0.06101 0.04499,-0.072 v -0.01801 l -0.157468,0.01801 0.06748,0.05404 -0.112474,-0.01801 v -0.03593 l -0.04499,-0.01801 -0.06748,0.03593 -0.02249,-0.161993 h -0.02249 l -0.02249,0.05404 -0.805127,-1.005514 -0.387088,-0.416392 0.08999,-0.03594 -0.06748,0.01801 c 0.01084,-0.06039 -0.0012,-0.0785 -0.06748,-0.107925 l 0.02249,0.126041 h -0.02249 l -0.337417,-0.359671 h 0.02249 l 0.06748,0.072 -0.02249,-0.144013 -0.04499,-0.05404 -0.08999,0.01801 0.04499,-0.05404 -0.08999,-0.072 c -0.105817,0.07403 0.0016,0.151446 0.112475,0.161993 l -0.02249,0.08997 h -0.02249 l -0.112474,-0.143874 -0.359912,-0.215981 c 0,-0.081 -0.251467,-0.227839 -0.337422,-0.269988 l 0.02249,-0.03593 -0.06748,-0.08997 0.134961,0.05404 h 0.02249 l -0.08999,-0.197976 h -0.02249 l 0.02249,0.05404 -0.157468,-0.107924 0.134962,0.12604 c -0.06301,0.04722 -0.12037,0.05635 -0.202452,0.03593 v -0.01801 h 0.08999 l -0.08999,-0.144012 h -0.04499 l -0.02249,0.05404 -0.06748,-0.05404 0.08999,-0.03593 -0.06748,0.01801 -0.02249,-0.01801 0.02249,-0.05404 h -0.06748 l 0.04499,-0.08997 h 0.02249 l 0.08999,0.03593 -0.134962,-0.107924 -0.06748,0.03593 0.04499,-0.072 -0.224943,-0.144013 -0.179955,-0.179997 -0.179955,-0.179997 0.04499,-0.072 -0.112474,-0.01801 -0.08999,-0.197976 -0.107675,-0.08532 -0.162248,-0.274648 -0.112475,0.03593 -0.04499,-0.01801 0.02249,-0.05404 0.06748,0.03593 -0.02249,-0.107924 -0.08999,0.03593 -0.02249,-0.072 h 0.157468 c -0.08898,-0.06644 -0.166099,-0.08982 -0.179955,-0.197976 l -0.269933,-0.197978 0.112475,0.197978 h -0.02249 l -0.157468,-0.197978 c 0.113907,0 -0.05484,-0.149414 -0.08999,-0.179996 l 0.02249,0.072 c -0.139432,-0.0689 -0.139935,-0.240391 -0.179955,-0.35986 l -0.02249,0.03593 h -0.02249 l 0.02249,-0.107924 -0.04499,0.01801 v -0.107924 c -0.08826,-0.02084 -0.116964,-0.111965 -0.134961,-0.179997 h -0.02249 v 0.107924 h -0.02249 l 0.02249,-0.12604 -0.06748,-0.179997 h -0.02249 l 0.02249,0.072 h -0.06748 l 0.02249,-0.072 -0.06748,-0.01801 0.04499,-0.072 h -0.02249 l -0.02249,0.03594 0.02249,-0.05404 v -0.01801 h -0.04499 v -0.01801 l 0.04499,-0.03593 -0.06748,0.05404 h -0.02249 l -0.06748,-0.05404 v -0.072 h 0.02249 l 0.06748,0.072 h 0.02249 l -0.134961,-0.251992 -0.109669,-0.25199 -0.205263,-0.755952 h -0.02249 l 0.134962,0.809945 -0.112474,-0.179997 0.04499,0.01801 -0.08999,-0.05404 0.02249,-0.05404 -0.157468,-0.305989 -0.06748,0.12604 v -0.08997 h -0.02249 l 0.06748,0.21598 -0.02249,0.12604 h -0.02249 v -0.072 h -0.02249 v 0.144014 h 0.02249 v -0.05404 h 0.02249 c 0,0.121096 -0.012,0.338707 0.08999,0.431969 v 0.01801 l -0.04499,0.179997 h 0.02249 v -0.08997 h 0.02249 l -0.02249,0.179997 0.04499,0.107924 0.04499,0.144013 0.02249,-0.01801 -0.06748,0.03593 v 0.01801 h 0.06748 l -0.02249,0.05404 0.06748,0.197976 c 0.06469,-3.71e-4 0.05587,0.03501 0.02249,0.072 0.04296,0.01077 0.07499,0.01774 0.02249,0.03593 v 0.01801 l 0.02249,0.03594 0.06748,0.05404 c -0.05831,-0.0093 -0.05842,-0.01236 -0.02249,0.03593 l 0.02249,-0.01801 -0.02249,0.05404 0.04499,0.107924 0.06748,0.01801 -0.02249,0.05404 0.06748,0.01801 -0.04499,0.03593 v 0.01801 l 0.179955,0.233986 -0.04499,-0.01801 v 0.01801 l 0.08999,0.01801 -0.04499,0.08997 0.02249,0.03593 0.112475,0.107925 -0.06748,0.01801 0.02249,0.05404 0.06748,-0.03593 0.08999,0.08997 0.08999,0.269987 0.06748,-0.01801 v 0.072 h -0.04499 l 0.02249,0.072 h 0.02249 l 0.04499,-0.05404 0.02249,0.107925 h 0.06748 v 0.01801 l -0.04499,-0.01801 v 0.01801 l 0.06748,0.01801 0.02249,0.08997 -0.02249,-0.05404 0.02249,0.072 c 0.09583,0.01543 0.0077,0.03081 0.02249,0.072 0.0048,0.01389 0.09554,0.0031 0,0.01801 v 0.01801 l 0.04499,0.03593 0.179956,0.12604 v 0.072 c 0.07393,0.0077 0.07425,0.05327 0.06748,0.107924 l 0.06748,-0.01801 -0.02249,0.072 c 0.107249,0.0093 0.147076,0.08066 0.157468,0.161993 h 0.06748 l -0.04499,0.03593 0.08999,0.03593 -0.02249,0.03593 0.112475,0.01801 v 0.01801 h -0.08999 l 0.112475,0.12604 c 0.07853,0.0077 0.175233,0.135344 0.179955,0.197976 l 0.02249,0.01801 0.04499,-0.01801 0.02249,0.01801 0.04499,0.072 h 0.02249 v 0.072 l 0.06748,0.08997 h 0.112475 l -0.04499,0.072 0.04499,-0.01801 -0.02249,0.03593 0.06748,-0.01801 0.08999,0.107925 0.02249,-0.03593 0.02249,0.01801 -0.04499,0.05404 h 0.08999 l -0.02249,0.05404 0.06748,0.01801 -0.04499,0.03593 0.08999,0.08997 h 0.08999 l -0.02249,0.05404 0.04499,-0.03608 h 0.02249 l 0.04499,0.03608 v 0.01801 h -0.06748 v 0.01801 c 0.06957,0.01389 0.109784,0.03127 0.112474,0.08997 l 0.202452,0.107925 v 0.01801 l -0.04499,0.01801 h 0.08999 v 0.01801 l -0.04499,0.01801 0.06748,0.072 c 0.07567,-0.0061 0.09744,0.01077 0.08997,0.072 l 0.157468,0.03593 -0.02249,0.107925 0.08999,-0.03593 c 0.0442,0.06317 0.08118,0.117681 0.179955,0.107925 -0.0052,0.01236 -0.03181,0.04103 -0.02249,0.05404 0.02562,0.03578 0.07998,0.02315 0,0.03594 v 0.01801 l 0.134962,0.08997 -0.02249,-0.072 0.08999,0.03593 -0.04499,0.03593 0.02249,0.03593 0.157468,0.05404 v 0.05404 l 0.08999,-0.01801 v 0.107924 L 71.97079,64.869474 70.971871,64.005535 70.639131,63.681554 70.50864,63.501557 c -0.172892,-0.0632 -0.30235,-0.270408 -0.405849,-0.394207 -0.273578,-0.327181 -0.556448,-0.64559 -0.79282,-0.992303 -0.07716,-0.113201 -0.22785,-0.26455 -0.218491,-0.395968 l -0.04499,-0.072 c -0.09318,-0.04304 -0.122189,-0.139821 -0.163603,-0.21598 -0.106049,-0.195148 -0.206972,-0.390844 -0.286602,-0.593969 -0.208842,-0.532774 -0.357778,-1.079981 -0.403242,-1.637902 -0.02483,-0.304657 0.0039,-0.614607 0.02075,-0.917948 0.01374,-0.248364 0.09339,-0.499437 0.177245,-0.73796 0.03071,-0.08732 0.05875,-0.221511 0.160584,-0.269972 -0.012,-0.09429 0.06024,-0.174029 0.12186,-0.251991 0.181059,-0.229098 0.475897,-0.359379 0.800426,-0.420372 0.09893,-0.01851 0.403465,-0.08177 0.467799,0.01389 0.05987,0.08905 -0.127163,0.253971 -0.163913,0.334478 -0.102392,0.224264 -0.09678,0.520402 -0.07758,0.755952 0.03224,0.39555 0.164957,0.797079 0.386682,1.151937 0.107946,0.172743 0.290134,0.326243 0.376783,0.503958 0.05076,-0.199571 -0.179935,-0.314614 -0.238172,-0.485967 -0.04584,-0.134881 0.03994,-0.263807 0.05105,-0.395966 0.005,-0.06133 -0.0335,-0.118916 -0.02407,-0.179997 0.03021,-0.195842 0.181968,-0.410014 0.269418,-0.593971 0.158532,-0.333472 0.32426,-0.665721 0.510605,-0.989937 0.06516,-0.113347 0.160081,-0.21261 0.227128,-0.323981 0.06069,-0.1008 0.02512,-0.224624 0.08625,-0.323887 0.09316,-0.151447 0.405667,-0.122638 0.579956,-0.09725 0.07663,0.01077 0.223102,0.05512 0.257855,-0.03036 0.03299,-0.0813 -0.06771,-0.229227 -0.104869,-0.304487 -0.09347,-0.189309 -0.171479,-0.356545 -0.08424,-0.557969 0.155514,-0.359175 0.507163,-0.616483 0.776784,-0.917948 0.161667,-0.180742 0.28757,-0.387205 0.465412,-0.557967 0.184387,-0.17704 0.4101,-0.334636 0.623596,-0.488381 0.413945,-0.298123 0.840195,-0.584337 1.304686,-0.831532 0.414057,-0.220353 0.92797,-0.473267 1.439655,-0.495222 0.263815,-0.01077 0.533684,0.285564 0.683992,0.429227 0.533619,0.509997 0.88622,1.127718 1.279493,1.709889 0.246565,0.36503 0.504128,0.729441 0.7818,1.079949 0.154913,0.195558 0.331952,0.379246 0.484669,0.57596 0.201934,0.260123 0.383805,0.529475 0.580587,0.791953 0.129001,0.172049 0.304149,0.315296 0.431356,0.485963 0.251287,0.337096 0.399145,0.7239 0.414057,1.115935 0.0079,0.207596 -0.06361,0.41288 -0.126214,0.611961 -0.184019,0.585438 -0.536225,1.120503 -0.773138,1.691894 m 3.689112,-4.283729 0.02249,0.01801 -0.02249,-0.01801 m 0.899786,1.529897 0.02249,0.01801 -0.02249,-0.01801 m 0.179955,0.323979 0.02249,0.01801 -0.02249,-0.01801 m -15.986168,0.425994 0.0075,0.01236 -0.0075,-0.01236 m 0.02249,0.072 0.0075,0.01236 -0.0075,-0.01236 m 0.02249,0.05404 0.0075,0.01236 -0.0075,-0.01236 m 0.04499,0.107925 0.0075,0.01236 -0.0075,-0.01236 m 0.05999,0.185965 0.04499,0.03593 -0.04499,-0.03593 m -0.832299,0.179997 v 0.08997 h 0.02249 l -0.02249,-0.08997 m 16.601013,0.05404 0.02249,0.01801 -0.02249,-0.01801 m -16.556025,0.01801 0.02249,0.01801 -0.02249,-0.01801 m -0.08999,0.03594 0.02249,0.01801 -0.02249,-0.01801 m 0.04499,0.01801 0.02249,0.01801 -0.02249,-0.01801 m -0.104985,0.03004 0.0075,0.01236 -0.0075,-0.01236 m 1.207219,0.04195 -0.02249,0.03593 0.02249,-0.03593 m 15.476284,0.03593 0.02249,0.01801 -0.02249,-0.01801 m -16.458558,0.01236 0.0075,0.01236 -0.0075,-0.01236 m -0.202452,0.03593 0.0075,0.01236 -0.0075,-0.01236 m 0.23995,0.0061 v 0.05404 h 0.02249 l -0.02249,-0.05404 m -0.23995,0.06598 0.0075,0.01236 -0.0075,-0.01236 m 16.750986,0.0061 0.02249,0.01801 -0.02249,-0.01801 m -16.488541,0.02392 c -0.01742,0 -0.0037,0.0093 0.0075,0.0061 l -0.0075,-0.0061 m -0.164957,0.04195 -0.0075,0.01236 0.0075,-0.01236 m 16.5935,0.03593 0.0075,0.01236 -0.0075,-0.01236 m -14.583992,0.02392 0.02249,0.01801 -0.02249,-0.01801 m -2.009508,0.01236 -0.0075,0.01236 0.0075,-0.01236 m 1.33467,0.04197 0.02249,0.01801 -0.02249,-0.01801 m -1.102236,0.0061 c -0.01742,0 -0.0037,0.0093 0.0075,0.0061 l -0.0075,-0.0061 m 1.16972,0.048 0.02249,0.01801 -0.02249,-0.01801 m 0.08999,0.08997 0.02249,0.01801 -0.02249,-0.01801 m -1.574619,0.01801 0.02249,0.08997 h 0.02249 l -0.04499,-0.08997 m 16.533528,0.072 0.02249,0.01801 -0.02249,-0.01801 m -16.353573,0.05404 -0.02249,0.01801 0.02249,-0.01801 m -0.202452,0 v 0.05404 h 0.02249 l -0.02249,-0.05404 m 0.494882,0.03593 -0.02249,0.01801 0.02249,-0.01801 m 16.016153,0.05404 0.02249,0.01801 -0.02249,-0.01801 m -16.511035,0 v 0.05404 h 0.02249 l -0.02249,-0.05404 m 16.488541,0.08997 0.02249,0.01801 -0.02249,-0.01801 m -15.866181,0.01236 -0.0075,0.01236 0.0075,-0.01236 m -0.57737,0.0061 0.02249,0.01801 -0.02249,-0.01801 m 1.222199,0.08393 0.0075,0.01236 -0.0075,-0.01236 m -1.019749,0.02392 -0.02249,0.01801 0.02249,-0.01801 m -0.134962,0.01801 0.02249,0.01801 -0.02249,-0.01801 m 1.192214,0.05404 0.02249,0.01801 -0.02249,-0.01801 m -0.614844,0.01236 -0.0075,0.01236 0.0075,-0.01236 m -0.48739,0.0061 -0.02249,0.01801 0.02249,-0.01801 m 1.147223,0.01801 0.04499,0.03593 -0.04499,-0.03593 m -0.614845,0.01236 -0.0075,0.01236 0.0075,-0.01236 m -0.48739,-0.01236 v 0.05404 h -0.02249 l 0.02249,-0.05404 m 0.629851,0.03593 0.02249,0.01801 -0.02249,-0.01801 m 0.494879,0.03593 0.02249,0.01801 -0.02249,-0.01801 m 0.03,0.048 0.0075,0.01236 -0.0075,-0.01236 m -0.68233,-0.01236 -0.02249,0.01801 0.02249,-0.01801 m 0.127472,0.06598 -0.0075,0.01236 0.0075,-0.01236 m 0.569858,0.0061 0.04499,0.03593 -0.04499,-0.03593 m -1.147228,0 -0.02249,0.01801 0.02249,-0.01801 m 0.539872,0.03593 -0.02249,0.01801 0.02249,-0.01801 m -0.674839,0 0.02249,0.01801 -0.02249,-0.01801 m 1.327183,0.01801 0.02249,0.01801 -0.02249,-0.01801 m -0.629849,0.01801 -0.02249,0.01801 0.02249,-0.01801 m 0.652343,0.01801 0.02249,0.01801 -0.02249,-0.01801 m -1.372176,0.01801 0.02249,0.01801 -0.02249,-0.01801 m 16.263598,0.01801 0.02249,0.01801 -0.02249,-0.01801 m -16.046142,0.03004 -0.0075,0.01236 0.0075,-0.01236 m 1.289684,0.0061 0.02249,0.01801 -0.02249,-0.01801 m -0.08999,0 0.02249,0.01801 -0.02249,-0.01801 m -1.394666,0.01801 0.02249,0.01801 -0.02249,-0.01801 m 1.417161,0.01801 0.02249,0.01801 -0.02249,-0.01801 m -0.674837,0 v 0.03594 h -0.04499 v -0.03594 h 0.04499 m 0.764816,0.01801 0.04499,0.03593 -0.04499,-0.03593 m -0.674839,0 -0.02249,0.01801 0.02249,-0.01801 m -0.764816,0 -0.02249,0.03593 h 0.04499 l -0.02249,-0.03593 m 1.372171,0.03593 0.06748,0.05404 -0.02249,-0.05404 h -0.04499 m -0.607352,0 -0.02249,0.01801 0.02249,-0.01801 m 0.742321,0.02392 c -0.01742,0 -0.0037,0.0093 0.0075,0.0061 l -0.0075,-0.0061 m -0.809804,-0.0061 v 0.072 h -0.02249 l 0.02249,-0.072 m 0.232436,0.03004 0.0075,0.01236 -0.0075,-0.01236 m -0.119964,0.0061 -0.02249,0.01801 0.02249,-0.01801 m -0.629847,0 v 0.05404 h -0.02249 l 0.02249,-0.05404 m 1.349674,0.01801 0.02249,0.01801 -0.02249,-0.01801 m -0.08997,0 0.08997,0.107925 -0.08997,-0.107925 m -0.62236,0.02393 -0.0149,0.0061 0.0149,-0.0061 m 0.757327,0.03004 0.02249,0.01801 -0.02249,-0.01801 m -0.83979,0.01236 -0.0075,0.01236 0.0075,-0.01236 m -0.712337,-0.01236 0.02249,0.01801 -0.02249,-0.01801 m 0.854794,0.01801 0.02249,0.01801 -0.06748,0.03593 0.04499,-0.05404 m 0.652344,0.05404 0.02249,0.01801 -0.02249,-0.01801 m -0.652344,0.01801 -0.02249,0.01801 0.02249,-0.01801 m 0.674838,0.01801 0.06748,0.05404 -0.06748,-0.05404 m -0.584859,0.01801 v 0.072 h -0.02256 l -0.02249,-0.072 h 0.04499 m -0.06748,0.01801 -0.02249,0.01801 0.02249,-0.01801 m 0.764814,0.01801 0.02249,0.01801 -0.02249,-0.01801 m 0.08999,0.01801 0.02249,0.01801 -0.02249,-0.01801 m -0.134961,0 0.04499,0.03593 -0.04499,-0.03593 m -0.517377,0.01801 0.02249,0.08997 h 0.02249 l -0.04499,-0.08997 m 0.607354,0.01801 0.02249,0.01801 -0.02249,-0.01801 m -0.652344,0 0.02249,0.01801 -0.02249,-0.01801 m -0.07497,0.01236 -0.0075,0.01236 0.0075,-0.01236 m -0.847303,0.0061 0.02249,0.01801 -0.02249,-0.01801 m 1.597117,0.01801 0.02249,0.01801 -0.02249,-0.01801 m -0.04499,0 0.02249,0.01801 -0.02249,-0.01801 m 0.157468,0.01801 0.02249,0.01801 -0.02249,-0.01801 m -0.764818,0 0.02249,0.08997 -0.02249,-0.08997 m 14.71147,0.01801 0.02249,0.01801 -0.02249,-0.01801 m -14.081619,0 0.02249,0.01801 -0.02249,-0.01801 m -0.727318,0.01236 -0.0075,0.01236 0.0075,-0.01236 m -0.779822,-0.01236 0.02249,0.01801 -0.02249,-0.01801 m 0.899786,0.01801 -0.02249,0.01801 0.02249,-0.01801 m 0.787309,0.01801 0.02249,0.01801 -0.02249,-0.01801 m -0.112475,0 h -0.04499 l 0.157468,0.179971 0.02249,-0.05404 -0.134962,-0.12604 m -0.112474,0 0.02249,0.01801 -0.02249,-0.01801 m -1.552126,0 0.02249,0.01801 -0.02249,-0.01801 m 1.079741,0.01801 0.02249,0.01801 -0.02249,-0.01801 m -0.877289,0 -0.02249,0.01801 0.02249,-0.01801 m 1.642107,0.03593 0.02249,0.01801 -0.02249,-0.01801 m -1.597119,0 -0.02249,0.01801 0.02249,-0.01801 m -0.157468,0.01801 0.02249,0.01801 -0.02249,-0.01801 m 0.854796,0.01801 0.04499,0.08997 h -0.02249 l -0.02249,-0.08997 m 1.012256,0.072 0.06748,0.05404 -0.06748,-0.05404 m -0.112474,0 0.02249,0.01801 -0.02249,-0.01801 m -1.732084,0 0.02249,0.01801 -0.02249,-0.01801 m 0.179955,0.01801 -0.02249,0.01801 0.02249,-0.01801 m 1.597115,0.01801 0.02249,0.01801 -0.02249,-0.01801 m -0.08999,0 0.02249,0.01801 -0.02249,-0.01801 m -0.787311,0 0.06748,0.12604 h -0.02249 l -0.04499,-0.12604 m -0.809807,0.01801 0.08999,0.072 -0.08999,-0.072 m 1.732083,0.01801 -0.06748,0.01801 v 0.01801 l 0.08999,0.03593 -0.02249,-0.072 m 0.06748,0.03593 -0.02249,0.03593 h 0.04499 l -0.02249,-0.03593 m 0.08999,0.01801 h -0.02249 -0.02249 v 0.01801 h 0.06748 l -0.02249,-0.01801 m -0.202452,0.01801 0.02249,0.01801 -0.02249,-0.01801 m -1.61961,0 0.02249,0.01801 -0.02249,-0.01801 m 1.867052,0.01801 -0.04499,0.08997 h 0.02249 l 0.02249,-0.05404 h 0.04499 l 0.02249,0.05404 h 0.02249 l -0.08997,-0.09043 m -1.912044,0 0.02249,0.01801 -0.02249,-0.01801 m 1.70959,0.01801 0.02249,0.01801 -0.02249,-0.01801 m -0.832297,0 0.04499,0.08997 h -0.02249 l -0.02249,-0.08997 m 14.374047,0.01801 0.02249,0.01801 -0.02249,-0.01801 m -15.161358,0.01801 0.02249,0.01801 -0.02249,-0.01801 m 1.694586,0.03004 0.0075,0.01236 -0.0075,-0.01236 m -1.739574,-0.01236 0.02249,0.01801 -0.02249,-0.01801 m 1.979524,0.01801 0.02249,0.01801 -0.02249,-0.01801 m -0.899785,0.08997 -0.06748,-0.05404 0.06748,0.05404 m -0.134962,-0.05404 0.112475,0.233986 h -0.02245 c -0.04993,-0.06721 -0.131749,-0.156538 -0.08999,-0.233986 m -0.04499,0 -0.02249,0.01801 0.02249,-0.01801 m 1.147223,0.01801 0.02249,0.01801 -0.02249,-0.01801 m -2.047009,0 0.02249,0.01801 -0.02249,-0.01801 m 1.799567,0.01801 0.02249,0.01801 -0.02249,-0.01801 m -0.517376,0 0.02249,0.01801 -0.02249,-0.01801 m 0.764818,0.03593 0.02249,0.01801 -0.02249,-0.01801 m -0.854794,0.01801 -0.02249,0.01801 0.02249,-0.01801 m 0.989763,0.03593 0.02249,0.01801 -0.02249,-0.01801 m -1.049756,0.0061 -0.0149,0.0061 0.0149,-0.0061 m 0.847302,0.01236 -0.02249,0.03593 0.02249,-0.03593 m -1.732082,0 -0.02249,0.01801 0.02249,-0.01801 m -0.134962,0.01801 0.02249,0.01801 -0.02249,-0.01801 m 2.069506,0.01801 0.06748,0.072 -0.06748,-0.072 m -0.04499,0 0.02249,0.01801 -0.02249,-0.01801 m -1.979524,0 0.02249,0.01801 -0.02249,-0.01801 m 1.82206,0.01801 0.02249,0.01801 -0.02249,-0.01801 m -1.687093,0 -0.02249,0.01801 0.02249,-0.01801 m 1.754578,0.03593 0.02249,0.01801 -0.02249,-0.01801 m -1.732083,0 -0.02249,0.01801 0.02249,-0.01801 m 0.764815,0.01801 0.134961,0.216007 h -0.02249 l -0.112474,-0.216007 m 1.282192,0.01801 0.02249,0.01801 -0.02249,-0.01801 m -0.06748,0.0061 c -0.01742,0 -0.0037,0.0093 0.0075,0.0061 l -0.0075,-0.0061 m -0.224945,-0.0061 0.02249,0.01801 -0.02249,-0.01801 m -0.629851,0 0.02249,0.01801 -0.02249,-0.01801 m -1.102236,0.01801 -0.02249,0.01801 0.02249,-0.01801 m 2.114496,0.05404 0.02249,0.01801 -0.02249,-0.01801 m -0.314927,0 0.02249,0.01801 -0.02249,-0.01801 m -0.157468,0.01801 0.02249,0.01801 -0.02249,-0.01801 m 0.517377,0.01801 0.02249,0.01801 -0.02249,-0.01801 m -0.08999,0 -0.02249,0.03593 0.02249,-0.03593 m 0.06748,0.03593 0.02249,0.01801 -0.02249,-0.01801 m -1.192217,0.01801 -0.02249,0.01801 0.02249,-0.01801 m 1.304688,0.01801 -0.04499,0.01801 v 0.01801 l 0.04499,-0.03593 m -2.316944,0.01801 0.02249,0.01801 -0.02249,-0.01801 m 2.361934,0.01801 0.02249,0.01801 -0.02249,-0.01801 m -1.372171,0 0.02249,0.05404 h -0.02249 v -0.05404 m -0.92228,0 -0.04499,0.01801 v 0.01801 l 0.04499,-0.03593 m 1.979528,0.01801 0.02249,0.01801 -0.02249,-0.01801 m -1.859563,0.0061 -0.0149,0.0061 0.0149,-0.0061 m 0.869798,0.03004 0.04499,0.03593 0.112474,0.161993 h -0.08999 l 0.02249,-0.05404 c -0.07977,-0.02866 -0.123157,-0.07448 -0.08999,-0.144013 m 1.402156,0.03004 0.0075,0.01236 -0.0075,-0.01236 m -0.07497,-0.01236 0.02249,0.01801 -0.02249,-0.01801 m -0.112474,0 0.02249,0.01801 -0.02249,-0.01801 m -0.922281,0.02393 c -0.01742,0 -0.0037,0.0093 0.0075,0.0061 l -0.0075,-0.0061 m 0.809806,0.03004 0.02249,0.01801 -0.02249,-0.01801 m 0.33742,0.01801 0.02249,0.01801 -0.02249,-0.01801 m -2.204474,0 0.02249,0.03609 -0.02249,-0.03609 m -0.104985,0.01236 0.0075,0.01236 -0.0075,-0.01236 m 2.039518,0.02392 v 0.01801 h 0.08999 l -0.08999,-0.01801 m 0.314924,0 0.02249,0.01801 -0.02249,-0.01801 m -0.06748,0 0.04499,0.03593 v -0.03593 h -0.04499 m -2.361934,0 0.06748,0.05404 -0.02249,-0.05404 h -0.04499 m 2.226966,0.01801 0.02249,0.01801 -0.02249,-0.01801 m -0.802316,0.01236 0.0075,0.01236 -0.0075,-0.01236 m -0.389899,0.0061 0.02249,0.01801 -0.02249,-0.01801 m 1.192215,0.01801 h -0.06748 v 0.01801 h 0.08997 l -0.02249,-0.01801 m 0.314923,0.01801 0.02249,0.01801 -0.02249,-0.01801 m -0.157468,0.01801 0.02249,0.01801 -0.02249,-0.01801 m -0.112475,0.0061 c -0.01742,0 -0.0037,0.0093 0.0075,0.0061 l -0.0075,-0.0061 m -0.472384,-0.0061 0.20245,0.215981 v 0.01801 l 0.225891,0.12604 0.358968,0.323982 0.06748,-0.03593 c 0.03311,0.146636 0.265863,0.378842 0.449891,0.413977 -0.0178,0.135345 0.237656,0.330671 0.404903,0.305987 v 0.08997 l -0.112475,-0.05451 v 0.01801 l 0.548621,0.539974 0.527993,0.575962 0.614845,0.649462 0.437406,0.52443 0.165576,0.176036 c -0.04262,-0.09738 -0.267227,-0.251435 -0.134951,-0.341649 l -0.06748,-0.01801 -0.02249,0.05404 h -0.02249 v -0.12604 c -0.08672,-0.05358 -0.164958,-0.103738 -0.157468,-0.197976 l -0.06748,-0.03593 0.06748,-0.03593 H 74.51271 l 0.06748,-0.03593 -0.02249,-0.05404 0.06748,0.05404 h 0.02249 c -0.09006,-0.182467 -0.2597,-0.341696 -0.394917,-0.503959 -0.433198,-0.519936 -0.933816,-0.989687 -1.480884,-1.435919 -0.194421,-0.15857 -0.395816,-0.318608 -0.598607,-0.471473 -0.03447,-0.02601 -0.205082,-0.167032 -0.20245,-0.09043 l -0.06748,-0.01801 0.04499,-0.03594 v -0.01801 l -0.202454,-0.08997 -0.112475,-0.12604 0.02249,-0.01801 -0.134961,-0.08393 -0.382405,-0.257986 m -0.719831,0 0.08999,0.072 -0.08999,-0.072 m -0.922276,0.0061 c -0.01742,0 -0.0037,0.0093 0.0075,0.0061 l -0.0075,-0.0061 m 2.429416,0.03004 0.06748,0.05404 -0.06748,-0.05404 m -0.06748,0 0.02249,0.01801 -0.02249,-0.01801 m -0.202454,0 -0.02249,0.05404 0.08999,0.01801 -0.02249,0.03593 0.04499,0.03593 h 0.02249 l -0.02249,-0.08997 0.112474,0.03593 -0.202454,-0.08997 m -2.159479,0 0.02249,0.01801 -0.02249,-0.01801 m 13.969145,0.03594 0.02249,0.01801 -0.02249,-0.01801 m -11.562224,0.02392 c -0.01742,0 -0.0037,0.0093 0.0075,0.0061 l -0.0075,-0.0061 m -2.339439,-0.0061 v 0.05404 h 0.02249 l -0.02249,-0.05404 m 1.822063,0.01801 0.02249,0.01801 -0.02249,-0.01801 m -0.719827,0 -0.02249,0.01801 0.02249,-0.01801 m -0.06748,0 -0.04499,0.03608 0.02249,0.03593 v 0.01801 h -0.02249 l -0.06748,-0.08997 h 0.112474 m 1.439653,0.03594 0.02249,0.01801 -0.02249,-0.01801 m -0.19496,0.03004 0.0075,0.01236 -0.0075,-0.01236 m -0.412392,-0.01236 0.02249,0.01801 -0.02249,-0.01801 m -1.799569,0.01801 0.02249,0.01801 -0.02249,-0.01801 m 0.997252,0.02392 -0.0149,0.0061 0.0149,-0.0061 m 1.342185,0.01236 0.02249,0.01801 -0.02249,-0.01801 m -0.157468,0 0.02249,0.01801 -0.02249,-0.01801 m -2.047007,0 -0.02249,0.01801 0.02249,-0.01801 m 2.316943,0.01801 0.02249,0.01801 -0.02249,-0.01801 m -0.0375,0.01236 0.0075,0.01236 -0.0075,-0.01236 m -1.154715,-0.01236 0.02249,0.01801 -0.02249,-0.01801 m -0.224947,0 0.02249,0.03594 -0.02249,-0.03594 m -0.06748,0 -0.02249,0.01801 0.02249,-0.01801 m 1.394665,0.01801 0.02249,0.01801 -0.02249,-0.01801 m -0.157468,0 v 0.01801 l 0.20245,0.126041 c -0.02514,-0.07357 -0.113849,-0.121256 -0.20245,-0.144014 m -1.057248,0 v 0.107924 h -0.02249 l -0.02249,-0.107924 h 0.04499 m -1.12473,0 0.02249,0.01801 -0.02249,-0.01801 m 0.134961,0.03594 -0.02249,0.01801 0.02249,-0.01801 m 2.451913,0.01801 0.02249,0.01801 -0.02249,-0.01801 m -0.224946,0 0.02249,0.01801 -0.02249,-0.01801 m -1.342189,0.0061 -0.0149,0.0061 0.0149,-0.0061 m -0.832299,0 -0.0149,0.0061 0.0149,-0.0061 m -0.164957,0.01236 0.02249,0.01801 -0.02249,-0.01801 m 2.564388,0.03593 h -0.179956 l 0.02249,0.08997 h 0.08999 l -0.02249,0.05404 0.134961,0.08997 h 0.02249 l -0.02249,-0.05404 0.06748,-0.05404 v -0.01801 l -0.112474,-0.03593 v -0.072 m -0.742322,0.01801 0.02249,0.01801 -0.02249,-0.01801 m -0.539871,0 -0.02249,0.01801 0.02249,-0.01801 m -1.057246,0 -0.02249,0.01801 0.02249,-0.01801 m 2.429416,0.01801 0.04499,0.03593 -0.04499,-0.03593 m -0.112474,0 -0.02249,0.05404 0.08999,0.072 -0.202452,-0.08997 0.134961,-0.03593 m -1.349675,0 v 0.03593 h -0.04499 l 0.04499,-0.03593 m 1.304686,0.01801 0.02249,0.01801 -0.02249,-0.01801 m -1.214708,0.01801 0.08999,0.107924 -0.112475,0.01801 -0.02249,-0.03609 0.04499,-0.08997 m 1.349677,0.01801 0.02249,0.03593 h -0.04499 l 0.02249,-0.03593 m -2.541891,0 0.02249,0.01801 -0.02249,-0.01801 m 1.057248,0.01801 0.02249,0.03593 -0.02249,-0.03593 m -0.967268,0 0.02249,0.01801 -0.02249,-0.01801 m 0,0.03593 0.02249,0.01801 -0.02249,-0.01801 m 2.541887,0.01801 v 0.03593 h 0.04499 l -0.04499,-0.03593 m -0.04499,0 0.02249,0.01801 -0.02249,-0.01801 m -0.502373,0.01236 -0.0075,0.01236 0.0075,-0.01236 m -0.554873,0.0061 0.02249,0.01801 -0.02249,-0.01801 m 11.764674,0.01801 0.02249,0.01801 -0.02249,-0.01801 m -11.15732,0 -0.02249,0.01801 0.02249,-0.01801 m -2.002019,0 v 0.01801 l 0.06748,0.01801 -0.06748,-0.03593 m 2.429416,0.05404 0.04499,0.072 0.06748,-0.01801 0.04499,0.05404 -0.02249,-0.05404 0.06748,0.01801 c -0.0436,-0.07912 -0.103012,-0.115819 -0.202452,-0.072 m -2.271954,-0.03593 -0.02249,0.01801 0.02249,-0.01801 m 2.339436,0.01801 0.04499,0.05404 -0.04499,-0.05404 m -1.079738,0 0.02249,0.01801 -0.02249,-0.01801 m -0.179956,0.01801 c -0.0014,0.05388 0.0012,0.07819 -0.06748,0.08997 v -0.01801 l 0.02249,-0.072 h 0.04499 m -0.08999,0.01801 -0.02249,0.01801 0.02249,-0.01801 m -1.072247,0.03004 0.0075,0.01236 -0.0075,-0.01236 m 1.454658,0.01236 c -0.01742,0 -0.0037,0.0093 0.0075,0.0061 l -0.0075,-0.0061 m 1.124727,0.01236 c 0.012,0.04769 0.0097,0.06488 -0.04499,0.05404 l 0.241615,0.223389 0.365739,0.280577 0.02249,-0.072 c -0.06762,-0.0031 -0.09935,-0.01749 -0.112474,-0.072 l -0.06748,-0.01801 0.02249,-0.072 h -0.02249 l -0.04499,0.05404 v -0.05404 l -0.02249,-0.01801 -0.04499,0.01801 -0.02249,-0.01801 -0.04499,-0.107925 -0.04499,0.03593 -0.179955,-0.233985 m -0.517376,0 -0.02249,0.01801 0.02249,-0.01801 m -0.809806,0 v 0.08997 l -0.06748,-0.08997 h 0.06748 m -0.179955,0 0.04499,0.072 -0.08999,-0.072 h 0.04499 m -1.012257,0 0.02249,0.01801 -0.02249,-0.01801 m 2.024515,0.03593 0.06748,0.072 -0.06748,-0.072 m 0.539871,0.01801 v 0.03593 h -0.04499 l 0.04499,-0.03593 m -0.449892,0 -0.02249,0.01801 0.02249,-0.01801 m -2.069502,0 0.02249,0.01801 -0.02249,-0.01801 m -0.05999,0.01236 0.0075,0.01236 -0.0075,-0.01236 m 12.949399,0.0061 0.02249,0.01801 -0.02249,-0.01801 m -11.427256,0 0.02249,0.01801 -0.02249,-0.01801 m 0.652342,0.01801 -0.02249,0.01801 0.02249,-0.01801 m -0.899784,0 -0.02249,0.08997 0.02249,-0.08997 m -1.162229,0.01236 0.0075,0.01236 -0.0075,-0.01236 m 12.701958,0.0061 0.04499,0.03593 -0.04499,-0.03593 m -10.167557,0.01801 0.02249,0.05404 -0.02249,-0.05404 m -1.102235,0 0.02249,0.01801 -0.02249,-0.01801 m 0.629847,0.01801 0.02249,0.03593 -0.02249,-0.03593 m -0.584859,0 0.02249,0.01801 -0.02249,-0.01801 m -0.08999,0.01801 -0.02249,0.072 0.112475,0.05404 -0.08999,-0.12604 m 0.787313,0.03608 -0.02249,0.01801 0.02249,-0.01801 m -2.069505,0.03593 0.02249,0.01801 -0.02249,-0.01801 m 12.462009,0.01801 0.02249,0.01801 -0.02249,-0.01801 m -9.717667,0.01801 0.02249,0.01801 -0.02249,-0.01801 m -0.944773,0 0.02249,0.01801 -0.02249,-0.01801 m -0.269935,0 v 0.01801 h 0.06748 l -0.06748,-0.01801 m 0.607356,0.01801 0.02249,0.072 h -0.02249 l -0.06748,-0.05404 0.06748,-0.01801 m -0.157468,0 0.02249,0.01801 -0.02249,-0.01801 m -0.517374,0 0.02249,0.01801 -0.02249,-0.01801 m -0.337422,0 -0.02249,0.01801 0.02249,-0.01801 m 1.529635,0.03594 -0.02249,0.01801 0.02249,-0.01801 m -2.474406,0 -0.02249,0.01801 0.02249,-0.01801 m -0.06748,0 -0.02249,0.01801 0.02249,-0.01801 m -0.08999,0 0.02249,0.01801 -0.02249,-0.01801 m 2.249461,0.01801 -0.02249,0.01801 0.02249,-0.01801 m -0.24744,0 0.04499,0.03593 -0.04499,-0.03593 m -0.787311,0.01801 -0.02249,0.01801 0.02249,-0.01801 m -1.124731,0.01801 0.02249,0.01801 -0.02249,-0.01801 m 2.766838,0.01801 v 0.03594 h 0.04499 l -0.04499,-0.03594 m -0.652346,0 0.134962,0.12604 -0.134962,-0.12604 m -0.967266,0 -0.02249,0.01801 0.02249,-0.01801 m -1.192213,0 0.02249,0.01801 -0.02249,-0.01801 m 2.294448,0.01801 -0.02249,0.01801 0.02249,-0.01801 m -0.809806,0 -0.02249,0.01801 0.02249,-0.01801 m -0.224945,0.01801 0.02249,0.01801 -0.02249,-0.01801 m 1.507136,0.01801 0.02249,0.01801 -0.02249,-0.01801 m -1.057244,0.01801 0.02249,0.01801 -0.02249,-0.01801 m -1.597117,0 0.02249,0.01801 -0.02249,-0.01801 m 2.789328,0.01801 0.04499,0.072 h 0.02249 l -0.06748,-0.072 m -0.517374,0 c 0.01297,0.04321 0.01064,0.04475 -0.04499,0.05404 l 0.02249,0.072 h -0.02249 l -0.04499,-0.072 0.08997,-0.05404 m 0.427398,0.01801 -0.02249,0.01801 0.02249,-0.01801 m -2.691861,0.01236 0.0075,0.01236 -0.0075,-0.01236 m 2.759346,0.0061 0.02249,0.01801 -0.02249,-0.01801 m -1.304688,0 -0.02249,0.05404 0.179956,0.072 -0.157469,-0.12604 m 0.427401,0.01801 v 0.03593 h 0.04499 v -0.03593 h -0.04499 m -1.724595,0.0061 -0.0149,0.0061 0.0149,-0.0061 m 2.556892,0.04799 0.06748,-0.01801 -0.06748,0.01801 m -0.404902,-0.03593 0.02249,0.05404 h -0.02249 -0.02249 l 0.02249,-0.05404 m -2.271956,0 0.02249,0.01801 -0.02249,-0.01801 m 2.789333,0.02392 c -0.01742,0 -0.0037,0.0093 0.0075,0.0061 l -0.0075,-0.0061 m -0.809806,-0.0061 0.02249,0.01801 -0.02249,-0.01801 m 0.877288,0.01801 0.04499,0.03593 -0.04499,-0.03593 m -1.52963,0 0.04499,0.03593 -0.04499,-0.03593 m 1.402154,0.03004 0.0075,0.01236 -0.0075,-0.01236 m -1.087232,-0.01236 0.02249,0.01801 -0.02249,-0.01801 m 1.147226,0.01801 0.02249,0.08997 h 0.02249 l -0.04499,-0.08997 m -0.517376,0 -0.04499,0.03593 0.04499,-0.03593 m -0.869798,0.01236 0.0075,0.01236 -0.0075,-0.01236 m 0.929793,0.01801 -0.0075,0.01236 0.0075,-0.01236 m -2.174487,-0.01236 0.02249,0.01801 -0.02249,-0.01801 m 2.766836,0.01801 0.06748,0.05404 -0.06748,-0.05404 m -2.811826,0 0.02249,0.01801 -0.02249,-0.01801 m 2.009511,0.03004 0.0075,0.01236 -0.0075,-0.01236 m -0.389898,-0.01236 -0.02249,0.03593 h 0.04499 l -0.02249,-0.03593 m 1.12473,0.01801 v 0.01801 l 0.04499,0.01801 c -0.05095,0.04984 0.05738,0.08578 0.112474,0.08997 l 0.157468,0.216007 h 0.02249 v -0.072 l 0.06748,0.03593 c -0.0091,-0.01543 -0.01393,-0.04783 -0.04499,-0.05404 -0.04329,-0.0093 -0.04271,0.02392 -0.08999,0 -0.0662,-0.03375 -0.105797,-0.07495 -0.06748,-0.126027 l 0.02249,0.01801 -0.06748,-0.08997 0.02249,0.072 h -0.06748 l -0.04499,-0.12604 h -0.06748 m -1.079739,0 0.02249,0.01801 -0.02249,-0.01801 m 0.719827,0.01801 v 0.03593 h -0.04499 v -0.03593 h 0.04499 m -0.922281,0.01801 c 0.07412,0.04429 0.1141,0.06518 0.112475,0.144012 l 0.06748,-0.01801 c -0.02841,-0.07803 -0.06951,-0.145247 -0.179955,-0.12604 m -1.259698,-0.01801 -0.02249,0.01801 0.02249,-0.01801 m 1.867054,0.03593 v 0.01801 l 0.06748,0.01801 -0.06748,-0.03593 m -0.04499,0 0.02249,0.01801 -0.02249,-0.01801 m 0.382407,0.03593 -0.02249,0.01801 0.02249,-0.01801 m -0.08999,0 -0.02249,0.01801 0.02249,-0.01801 m 0.157468,0.01801 -0.04499,0.03594 v -0.03594 h 0.04499 m -0.33742,0 0.02249,0.01801 -0.02249,-0.01801 m -2.024514,0 0.02249,0.01801 -0.02249,-0.01801 m 2.271956,0.01801 0.02249,0.03593 -0.02249,-0.03593 m -0.562368,0 v 0.03593 h 0.04499 l -0.04499,-0.03593 m -0.157449,0 0.112475,0.03593 -0.112475,-0.03593 m 1.327181,0.01801 v 0.072 l 0.08997,0.01801 -0.08997,-0.08997 m -0.584861,0.03594 -0.02249,0.01801 0.02249,-0.01801 m -0.764817,0.05404 0.134962,0.01801 c -0.03559,-0.05358 -0.09063,-0.07649 -0.134962,-0.01801 m 0.899786,-0.03593 -0.02249,0.01801 0.02249,-0.01801 m -0.734832,0.01236 0.0075,0.01236 -0.0075,-0.01236 m -1.424652,-0.01236 -0.02249,0.01801 0.02249,-0.01801 m 2.226967,0.01801 0.06748,0.072 -0.06748,-0.01801 0.02249,0.03594 h -0.02249 v -0.08997 m -0.157468,0 -0.02249,0.01801 0.02249,-0.01801 m -0.427397,0 0.02249,0.01801 -0.02249,-0.01801 m -0.02249,0.03593 v 0.072 h 0.02249 0.02249 l -0.04499,-0.072 m 0.337418,0.01801 v 0.03593 h 0.04499 l -0.04499,-0.03593 m -0.58486,0 0.06748,0.05404 -0.06748,-0.05404 m 0.472387,0.01801 0.02249,0.01801 -0.02249,-0.01801 m -0.112474,0 0.02249,0.01801 -0.02249,-0.01801 m 0.4274,0.01801 -0.02249,0.01801 0.02249,-0.01801 m 0.58486,0.01801 c -0.02057,0.103113 0.205329,0.366424 0.337417,0.377975 -0.006,0.09337 0.0757,0.193476 0.179955,0.233986 v -0.01801 l -0.134961,-0.108696 -0.04499,-0.072 h 0.04499 l -0.04499,-0.072 -0.04499,0.03593 -0.02249,-0.107924 -0.04499,0.03593 c -0.02212,-0.05311 -0.03344,-0.06521 0.02249,-0.05404 v -0.01801 L 73.81535,64.008355 h -0.02249 l 0.02249,0.03593 h -0.02249 l -0.08999,-0.107925 0.08999,0.03594 -0.08999,-0.05404 m -0.382407,0.01801 -0.02249,0.01801 0.02249,-0.01801 m -0.314927,0 0.02249,0.01801 -0.02249,-0.01801 m -1.079739,0 -0.02249,0.01801 0.02249,-0.01801 m 0.832301,0.01801 v 0.107924 h 0.02249 l 0.02249,-0.08997 -0.04499,-0.01801 m 0.539867,0.01801 -0.02249,0.01801 0.02249,-0.01801 m -1.304685,0 -0.02249,0.01801 0.02249,-0.01801 m 1.394665,0.01801 0.04499,0.05404 -0.04499,-0.05404 m -0.0375,0.04197 -0.0149,0.0061 0.0149,-0.0061 m -0.524866,-0.0061 0.02249,0.01801 -0.02249,-0.01801 m 0.427397,0.01801 -0.02249,0.01801 0.02249,-0.01801 m -1.147226,0 0.02249,0.03608 h -0.04499 l 0.02249,-0.03608 m -0.06748,0 -0.02249,0.01801 0.02249,-0.01801 m 1.822064,0.01801 0.04499,0.05404 -0.04499,-0.05404 m -0.382409,0 -0.04499,0.03593 v -0.03593 h 0.04499 m -0.944773,0 0.02249,0.01801 -0.02249,-0.01801 m -0.08999,0 -0.02249,0.01801 0.02249,-0.01801 m 0.224947,0.01801 0.04499,0.03593 v -0.03593 h -0.04499 m 0.854793,0.01801 -0.02249,0.01801 0.02249,-0.01801 m -0.787311,0 0.02249,0.08997 h -0.06748 l 0.06748,0.08997 0.134962,0.03593 -0.02249,-0.08997 -0.134962,-0.12604 m -0.247442,0 -0.02249,0.01801 0.02249,-0.01801 m -1.304685,0.04197 c -0.01742,0 -0.0037,0.0093 0.0075,0.0061 l -0.0075,-0.0061 m 2.339436,0.01236 -0.02249,0.05404 H 73.4779 l 0.04499,-0.05404 m -0.967268,0 0.06748,0.072 -0.06748,-0.072 m -1.282191,0 -0.02249,0.01801 0.02249,-0.01801 m 1.957029,0.01801 0.02249,0.01801 -0.02249,-0.01801 m -0.292429,0.01801 v 0.03594 h 0.04499 v -0.03594 h -0.04499 m 0.652343,0.01801 v 0.05404 l -0.06748,-0.01801 v -0.01801 l 0.06748,-0.01801 m -0.697331,0 0.02249,0.01801 -0.02249,-0.01801 m 1.079739,0.01801 -0.02249,0.01801 0.02249,-0.01801 m -0.877289,0.03593 -0.06748,0.05404 0.08999,-0.03593 -0.02249,-0.01801 m -0.404904,0 -0.02249,0.01801 0.02249,-0.01801 m 0.967269,0.01801 v 0.03593 l -0.04499,-0.03593 h 0.04499 m -2.339437,0 0.02249,0.01801 -0.02249,-0.01801 m 1.807056,0.03004 0.0075,0.01236 -0.0075,-0.01236 m -0.209941,-0.01236 -0.06748,0.03593 0.06748,0.05404 v -0.08997 m -0.427399,0.01801 -0.02249,0.01801 0.02249,-0.01801 m -1.124728,0 0.02249,0.05404 h 0.02249 l -0.04499,-0.05404 m 2.339439,0.01801 -0.02249,0.01801 0.02249,-0.01801 m -1.349676,0 0.06748,0.072 -0.06748,-0.072 m 1.394666,0.01801 v 0.03593 h -0.04499 l 0.04499,-0.03593 m 0.382409,0.05404 -0.02249,0.01801 0.02249,-0.01801 m -0.697334,0.12604 0.06748,-0.072 -0.02249,-0.05404 c -0.07865,0.02896 -0.132369,0.07959 -0.04499,0.12604 m -0.607352,-0.12604 0.04499,0.05404 -0.04499,-0.05404 m -0.224947,0 -0.02249,0.01801 0.02249,-0.01801 m -1.124728,0 0.02249,0.01801 -0.02249,-0.01801 m 1.642105,0.01801 0.02249,0.01801 -0.02249,-0.01801 m 0.359914,0.01801 -0.02249,0.01801 0.02249,-0.01801 m -0.307435,0.01236 0.0075,0.01236 -0.0075,-0.01236 m 0.734832,0.02392 v 0.03594 l -0.04499,-0.03594 h 0.04499 m -0.08999,0.03594 -0.06748,-0.01801 0.06748,0.01801 m -0.314925,-0.03594 c 0.0014,0.06644 -0.02539,0.122798 0.06748,0.144013 l -0.02249,-0.144013 h -0.04499 m -0.472387,0.01801 0.04499,0.05404 h 0.02249 v -0.072 l -0.06748,0.01801 m -0.157468,-0.01801 -0.02249,0.01801 0.02249,-0.01801 m -0.359914,0 -0.02249,0.01801 0.02249,-0.01801 m 1.349678,0.03593 v 0.05404 h -0.02249 l 0.02249,-0.05404 m -0.944776,0 -0.02249,0.01801 0.02249,-0.01801 m 1.034751,0.03593 -0.02249,0.01801 0.02249,-0.01801 m -0.997252,0.01236 -0.0075,0.01236 0.0075,-0.01236 m -0.352421,-0.01236 -0.02249,0.01801 0.02249,-0.01801 m 1.61961,0.01801 -0.02249,0.05404 h 0.06748 l -0.04499,-0.05404 m -1.597119,0.01801 -0.02249,0.01801 0.02249,-0.01801 m -0.967267,0 0.02249,0.01801 -0.02249,-0.01801 m 2.249461,0.01801 -0.02249,0.01801 0.02249,-0.01801 m -0.269934,0 0.02249,0.01801 -0.02249,-0.01801 m -0.832301,0 -0.02249,0.01801 0.02249,-0.01801 m 1.507135,0.01801 0.02249,0.01801 -0.02249,-0.01801 m -0.269932,0 -0.02249,0.01801 0.02249,-0.01801 m -0.247442,0 -0.02249,0.01801 0.02249,-0.01801 m -0.607352,0 0.02249,0.01801 -0.02249,-0.01801 m -0.179955,0 -0.02249,0.01801 0.02249,-0.01801 m -1.259698,0 0.06748,0.05404 -0.02249,-0.05404 h -0.04499 m 2.519396,0.01801 0.04499,0.03593 -0.04499,-0.03593 m -1.417161,0 0.04499,0.05404 -0.04499,-0.05404 m 0.449892,0.01801 0.08999,0.107924 -0.08999,-0.107924 m 0.787313,0.01801 -0.04499,0.03593 0.04499,-0.03593 m 0.224943,0.03593 0.02249,0.01801 -0.02249,-0.01801 m -0.20245,0 0.04499,0.05404 -0.04499,-0.05404 m -1.147223,0.01801 0.04499,0.05404 -0.04499,-0.05404 m 1.32718,0.01801 0.02249,0.01801 -0.02249,-0.01801 m 0.06748,0.01801 0.02249,0.01801 -0.02249,-0.01801 m -1.057248,0 0.04499,0.03593 -0.04499,-0.03593 m -0.494879,0 0.02249,0.03593 -0.02249,-0.03593 m -0.764818,0 -0.02249,0.01801 0.02249,-0.01801 m 1.349677,0.03593 0.02249,0.01801 -0.02249,-0.01801 m 0.764816,0.01801 0.08997,0.072 -0.08997,-0.072 m -2.129495,0.01236 0.0075,0.01236 -0.0075,-0.01236 m 1.387174,0.0061 0.02249,0.01801 -0.02249,-0.01801 m 0.989761,0.01801 0.02249,0.01801 -0.02249,-0.01801 m -0.517376,0.01801 0.02249,0.01801 -0.02249,-0.01801 m -0.427397,0 -0.02249,0.03593 0.02249,-0.03593 m -0.247442,0 -0.02249,0.01801 0.02249,-0.01801 m 1.21471,0.01801 0.02249,0.01801 -0.02249,-0.01801 m -0.157468,0.01801 0.02249,0.05404 h -0.02249 v -0.05404 m -1.102236,0 -0.02249,0.01801 0.02249,-0.01801 m 0.112475,0.01801 -0.02249,0.01801 0.02249,-0.01801 m -1.124729,0 -0.02249,0.03593 h 0.04499 l -0.02249,-0.03593 m 1.034751,0.01801 -0.02249,0.01801 0.02249,-0.01801 m -0.06748,0 -0.02249,0.01801 0.02249,-0.01801 m 1.192211,0.03593 -0.02249,0.01801 0.02249,-0.01801 m -1.079741,0 -0.02249,0.01801 0.02249,-0.01801 m 1.124731,0.03593 -0.02249,0.01801 0.02249,-0.01801 m -1.079741,0 0.06748,0.08997 c -0.06458,-0.0061 -0.0998,-0.03779 -0.06748,-0.09013 m -0.08999,0 0.02249,0.03593 h -0.04499 l 0.02249,-0.03593 m 0.472387,0.01801 0.02249,0.01801 -0.02249,-0.01801 m -0.652344,0 -0.02249,0.01801 0.02249,-0.01801 m 1.394665,0.01801 -0.02249,0.01801 0.02249,-0.01801 m -1.012256,0 -0.02249,0.01801 0.02249,-0.01801 m -0.314924,0 -0.02249,0.01801 0.02249,-0.01801 m 1.372172,0.05404 0.02249,0.03593 -0.02249,-0.03593 m -0.337421,0.01801 0.02249,0.01801 -0.02249,-0.01801 m -0.697332,0.01801 -0.02249,0.01801 0.02249,-0.01801 m -0.06748,0 -0.02249,0.01801 0.02249,-0.01801 m 1.049755,0.03004 -0.0075,0.01236 0.0075,-0.01236 m 0.119964,0.0061 -0.02249,0.01801 0.02249,-0.01801 m -1.934537,0 -0.02249,0.01801 0.02249,-0.01801 m 0.832301,0.01801 0.04499,0.107924 -0.04499,-0.107924 m -0.112474,0 -0.02249,0.01801 0.02249,-0.01801 m -0.157468,0 -0.02249,0.01801 0.02249,-0.01801 m -0.697332,0 0.02249,0.01801 -0.02249,-0.01801 m 0.757325,0.06598 -0.0075,0.01236 0.0075,-0.01236 m -0.622358,-0.01236 0.02249,0.01801 -0.02249,-0.01801 m 0.08999,0.01801 -0.02249,0.01801 0.02249,-0.01801 m 0.877288,0.01801 -0.02249,0.01801 0.02249,-0.01801 m -0.832301,0 -0.02249,0.01801 0.02249,-0.01801 m 0.854796,0.03593 -0.02249,0.01801 0.02249,-0.01801 m -0.08999,0 0.04499,0.05404 -0.04499,-0.05404 m -0.742323,0 0.06748,0.05404 v 0.01801 c -0.08436,-0.0013 -0.134458,-0.0016 -0.157468,-0.072 h 0.02249 l 0.02249,0.05404 h 0.02249 l 0.02249,-0.05404 m 1.724593,0.03004 -0.0075,0.01236 0.0075,-0.01236 m -0.847304,0.0061 0.02249,0.03593 h -0.04499 l 0.02249,-0.03593 m 1.057246,0.03593 v 0.107924 h 0.02249 l -0.02249,-0.072 0.08999,0.05404 -0.08999,-0.08997 m -1.102235,0 0.112474,0.03593 0.06748,0.107924 -0.06748,-0.072 c -0.0765,0.01774 -0.145663,1.54e-4 -0.112474,-0.072 m 0.989761,0.01801 -0.02249,0.01801 0.02249,-0.01801 m -1.642105,0 -0.02249,0.01801 0.02249,-0.01801 m -0.04499,0.072 0.04499,0.05404 h 0.02249 v -0.05404 h 0.02249 l 0.04499,0.01801 v 0.01801 l -0.06748,0.01801 0.04499,0.05404 -0.24744,-0.179997 c 0.07547,0.0077 0.126079,0.0077 0.134961,0.072 m -0.04499,-0.03004 c -0.01742,0 -0.0037,0.0093 0.0075,0.0061 l -0.0075,-0.0061 m 1.73208,0.01236 -0.02249,0.01801 0.02249,-0.01801 m -0.134961,0 0.02249,0.01801 -0.02249,-0.01801 m 0,0.03593 0.04499,0.03593 v -0.03593 h -0.04504 m 0.337419,0.01801 0.04499,0.03594 -0.04499,-0.03594 m -1.102237,0.01801 0.08999,0.161991 h -0.02249 l -0.06748,-0.161991 m -0.629847,0 -0.02249,0.01801 0.02249,-0.01801 m 1.462148,0.01801 0.04499,0.05404 0.02249,-0.01801 -0.06748,-0.03593 m -0.719827,0 0.02249,0.03593 -0.02249,-0.03593 m 1.034751,0.01801 0.04499,0.05404 -0.04499,-0.05404 m -0.06748,0 0.06748,0.072 -0.06748,-0.072 m -1.664602,0 v 0.01801 h -0.06748 v -0.01801 h 0.06748 m 0.04499,0.01801 c -0.0023,0.08594 0.142412,0.185836 0.224947,0.233985 l -0.02249,-0.03593 h 0.02249 l 0.04499,0.05404 h 0.02247 l 0.04499,0.05404 -0.02249,0.05404 0.06748,-0.01801 -0.02249,0.072 0.08999,0.01801 v 0.01801 L 73.185364,65.75504 73.07289,65.629 73.0504,65.64701 73.11788,65.59297 m 1.552128,0.01801 -0.02249,0.01801 0.02249,-0.01801 m -0.20245,0 0.02249,0.01801 -0.02249,-0.01801 m -0.637343,0.01236 -0.0075,0.01236 0.0075,-0.01236 m -0.172465,0.0061 -0.02249,0.01801 0.02249,-0.01801 m 1.192213,0.01801 0.04499,0.05404 -0.04499,-0.05404 m -1.657109,0.0061 -0.0149,0.0061 0.0149,-0.0061 m 1.544638,0.03004 -0.02249,0.01801 0.02249,-0.01801 m -0.854798,0 -0.02249,0.01801 0.02249,-0.01801 m -0.08999,0.01801 0.04499,0.072 h -0.02249 l -0.02249,-0.072 m -0.517375,0 -0.02249,0.01801 0.02249,-0.01801 m 0.629849,0.01801 -0.02249,0.01801 0.02249,-0.01801 m 0.652344,0.03593 0.02249,0.01801 -0.02249,-0.01801 m -1.169719,0.01801 -0.02249,0.01801 0.02249,-0.01801 m 1.439655,0.01801 -0.02249,0.01801 0.02249,-0.01801 m -0.8323,0.01801 0.06748,0.12604 h -0.02249 l -0.04499,-0.12604 m 1.012256,0.03593 0.02249,0.01801 -0.02249,-0.01801 m -1.619611,0.05404 0.02249,0.01801 -0.02249,-0.01801 m 0.629847,0.03593 -0.02249,0.01801 0.02249,-0.01801 m 1.057248,0.01801 0.02249,0.01801 -0.02249,-0.01801 m -0.809806,0 0.02249,0.01801 -0.02249,-0.01801 m -0.157468,0.01801 0.02249,0.05404 h -0.02249 v -0.05404 m -0.652342,0 0.02249,0.01801 -0.02249,-0.01801 m 1.642105,0.01801 0.02249,0.01801 -0.02249,-0.01801 m -1.477153,0.02392 -0.0149,0.0061 0.0149,-0.0061 m 0.959777,0.03004 0.02249,0.01801 -0.02249,-0.01801 m -0.20245,0 -0.02249,0.01801 0.02249,-0.01801 m -0.224945,0 -0.02249,0.01801 0.02249,-0.01801 m -0.06748,0 -0.02249,0.01801 0.02249,-0.01801 m -0.562366,0 0.08999,0.03593 v 0.07168 H 73.59028 L 73.5228,66.043146 m 1.012258,0.01801 0.02249,0.01801 -0.02249,-0.01801 m 0.119964,0.048 0.0075,0.01236 -0.0075,-0.01236 m 0.37492,0.0061 0.02249,0.072 h 0.02249 l -0.04499,-0.072 m 0.157468,0.01801 0.02249,0.01801 -0.02249,-0.01801 m -1.522143,0.0061 -0.0149,0.0061 0.0149,-0.0061 m 1.049755,0.01236 0.02249,0.01801 -0.02249,-0.01801 m 0.494881,0.01801 0.02249,0.01801 -0.02249,-0.01801 m -1.57462,0 -0.02249,0.01801 0.02249,-0.01801 m 0.914787,0.03004 -0.0075,0.01236 0.0075,-0.01236 m 0.524866,0.0061 0.02249,0.01801 -0.02249,-0.01801 m -0.562364,0 -0.04499,0.03593 0.04499,-0.03593 m -0.787313,0 v 0.01801 l -0.06748,0.01801 0.06748,-0.03593 m 1.394667,0.01801 0.112474,0.161993 -0.112474,-0.161993 m -0.922279,0 -0.02249,0.01801 0.02249,-0.01801 m -0.404904,0 -0.02249,0.01801 0.02249,-0.01801 m 0.757327,0.04799 -0.0075,0.01236 0.0075,-0.01236 m -0.77982,0.0061 0.02249,0.05404 h -0.06748 l 0.04499,-0.05404 m -0.04499,0 -0.02249,0.01801 0.02249,-0.01801 m 1.574622,0.05404 0.02249,0.01801 -0.02249,-0.01801 m -1.529631,0.01801 -0.02249,0.01801 0.02249,-0.01801 m 1.552128,0.01801 0.02249,0.01801 -0.02249,-0.01801 m -1.529635,0.01801 0.02249,0.03593 -0.02249,-0.03593 m 1.912044,0.01801 0.02249,0.01801 -0.02249,-0.01801 m -0.967268,0 0.02249,0.01801 -0.02249,-0.01801 m 0.697329,0.03593 0.02249,0.01801 -0.02249,-0.01801 m -1.597115,0 -0.02249,0.01801 0.02249,-0.01801 m 1.597115,0.03593 0.02249,0.01801 -0.02249,-0.01801 m -0.224945,0 0.02249,0.01801 -0.02249,-0.01801 m -0.247439,0 0.02249,0.01801 -0.02249,-0.01801 m -0.157468,0 0.02249,0.01801 -0.02249,-0.01801 m -0.937283,0.0061 -0.0149,0.0061 0.0149,-0.0061 m 1.70959,0.02418 0.0075,0.01236 -0.0075,-0.01236 m -0.884778,-0.01236 v 0.05404 l -0.04499,-0.05404 h 0.04499 m -0.71983,0.01801 -0.02249,0.01801 0.02249,-0.01801 m -0.04499,0.01801 v 0.01801 h -0.06748 v -0.01801 h 0.06748 m 1.304686,0 0.06748,0.072 -0.02249,-0.072 h -0.04499 m -0.382409,0 0.02249,0.01801 -0.02249,-0.01801 m -0.337418,0.03593 -0.02249,0.01801 0.02249,-0.01801 m -0.584861,0 v 0.05404 h -0.02249 l -0.02249,-0.05404 h 0.04499 m 0.08999,0.01801 -0.02249,0.01801 0.02249,-0.01801 m 1.064739,0.03004 0.0075,0.01236 -0.0075,-0.01236 m -0.209943,-0.01236 v 0.03609 h 0.04499 v -0.03609 h -0.04499 m 0.92228,0.01801 0.02249,0.01801 -0.02249,-0.01801 m -0.269939,0 0.02249,0.01801 -0.02249,-0.01801 m -1.567129,0.02392 -0.0149,0.0061 0.0149,-0.0061 m 1.147224,0.04211 0.0075,0.01236 -0.0075,-0.01236 m 0.23995,0.0061 0.02249,0.01801 -0.02249,-0.01801 m -0.179955,0 0.04499,0.05404 -0.04499,-0.05404 m -1.192215,0 -0.02249,0.01801 0.02249,-0.01801 m 0.982272,0.03004 -0.0075,0.01236 0.0075,-0.01236 m -0.967268,0.01801 -0.0075,0.01236 0.0075,-0.01236 m 0.907276,0.04195 v 0.01801 l -0.179955,-0.03593 0.179955,0.01801 m 1.109725,-0.0061 0.0075,0.01236 -0.0075,-0.01236 m -0.614845,-0.01236 0.02249,0.01801 -0.02249,-0.01801 m -0.382407,0.01801 v 0.01801 l -0.08999,-0.03593 0.08999,0.01801 m 0.494881,0 -0.02249,0.01801 0.02249,-0.01801 m -1.41716,0 -0.02249,0.01801 0.02249,-0.01801 m -0.04499,0 v 0.03594 l -0.04499,-0.03594 h 0.04499 m 1.934536,0.03594 0.02249,0.01801 -0.02249,-0.01801 m -1.822062,0 -0.02249,0.01801 0.02249,-0.01801 m 1.079741,0.01801 0.02249,0.05404 h 0.02249 l 0.02249,-0.05404 h -0.06748 m -0.232436,0.01236 -0.0075,0.01236 0.0075,-0.01236 m -0.937282,-0.01236 -0.04499,0.03593 v -0.03593 h 0.04499 m 1.057248,0.01801 0.02249,0.03593 -0.02249,-0.03593 m -1.064739,0.04799 -0.0075,0.01236 0.0075,-0.01236 m 1.424651,0.0061 0.02249,0.01801 -0.02249,-0.01801 m -0.179955,0 0.02249,0.01801 -0.02249,-0.01801 m -0.112474,0 0.02249,0.05404 -0.04499,0.05404 h -0.02249 l -0.02249,-0.03593 0.02249,-0.072 h 0.04499 m 0.809806,0.01801 0.02249,0.01801 -0.02249,-0.01801 m -0.307436,0.01236 0.0075,0.01236 -0.0075,-0.01236 m -0.749812,-0.01236 0.02249,0.05404 -0.02249,-0.05404 m -0.772308,0.03004 -0.0075,0.01236 0.0075,-0.01236 m -0.0375,-0.01236 -0.02249,0.01801 0.02249,-0.01801 m 1.237203,0.01801 v 0.01801 h 0.08999 l -0.08999,-0.01801 m -0.08997,0.03594 0.02249,0.01801 -0.02249,-0.01801 m 1.327181,0.01801 0.02249,0.179972 h 0.02249 v -0.179972 h -0.04499 m -1.424651,0.03004 -0.0075,0.01236 0.0075,-0.01236 m 3.111746,0.0061 0.02249,0.01801 -0.02249,-0.01801 m -2.78933,0 -0.02249,0.161991 h 0.02249 v -0.161991 m 0.742319,0.01801 0.02249,0.01801 -0.02249,-0.01801 m -0.44989,0.01801 0.02249,0.01801 -0.02249,-0.01801 m -1.484644,0 -0.02249,0.01801 0.02249,-0.01801 m 1.259699,0.01801 v 0.05404 h 0.02249 l -0.02249,-0.05404 m -0.382409,0.179971 c -0.08972,-0.03424 -0.18069,-0.07681 -0.157468,-0.161992 0.08743,0.03624 0.145547,0.08207 0.157468,0.161992 m -0.112474,-0.08997 0.02249,0.01801 -0.02249,-0.01801 m 1.552127,0.01801 v 0.12604 h 0.02249 l -0.02249,-0.12604 m -1.079739,0 v 0.144012 h 0.04499 v -0.144012 h -0.04499 m -0.119963,0.01236 -0.0075,0.01236 0.0075,-0.01236 m -0.20245,0 -0.0075,0.01236 0.0075,-0.01236 m 2.954282,0.04197 0.02249,0.01801 -0.02249,-0.01801 m -3.08925,0.03004 -0.0075,0.01236 0.0075,-0.01236 m 0.322416,0.0061 -0.02249,0.01801 0.02249,-0.01801 m 0.269935,0.03593 0.02249,0.01801 -0.02249,-0.01801 m -0.04499,0 0.02249,0.01801 -0.02249,-0.01801 m -0.427399,0.01801 v 0.05404 h -0.02249 l 0.02249,-0.05404 m 1.41716,0.05404 0.02249,0.01801 -0.02249,-0.01801 m -2.271954,0 -0.02249,0.01801 0.02249,-0.01801 m 1.282193,0.01801 v 0.072 h 0.02249 l -0.02249,-0.072 m -0.202452,0 0.02249,0.107924 h -0.02249 v -0.107924 m -0.209941,0.01236 -0.0075,0.01236 0.0075,-0.01236 m 0.502369,0.04195 0.02249,0.01801 -0.02249,-0.01801 m -0.134962,0.0061 c -0.01742,0 -0.0037,0.0093 0.0075,0.0061 l -0.0075,-0.0061 m -0.337419,-0.0061 -0.02249,0.161991 h -0.04499 c 6.2e-5,-0.06922 -0.01026,-0.122637 0.06748,-0.161991 m 0.434886,0.03004 0.0075,0.01236 -0.0075,-0.01236 m -0.592348,-0.01236 v 0.05404 h -0.02249 l 0.02249,-0.05404 m 0.794802,0.08408 0.0075,0.01236 -0.0075,-0.01236 m -1.447146,-0.01236 -0.02249,0.01801 0.02249,-0.01801 m 1.942026,0.048 0.0075,0.01236 -0.0075,-0.01236 m -0.142451,-0.01236 v 0.12604 l 0.112474,-0.03593 v 0.072 h 0.02249 l 0.04499,-0.107924 -0.06748,0.03593 v -0.072 l -0.112474,-0.01801 m -0.69733,0.03593 h -0.06748 l 0.02249,-0.03593 0.04499,0.03593 m -0.104985,-0.01236 -0.0149,0.0061 0.0149,-0.0061 m 0.847303,0.01236 v 0.072 h -0.02249 l -0.02249,-0.072 h 0.04499 m -0.179955,0 0.02249,0.215982 h 0.02249 v -0.215982 h -0.04499 m -0.337417,0 0.02249,0.01801 -0.02249,-0.01801 m -0.472389,0 -0.08999,0.05404 0.08999,-0.05404 m 0.202454,0.01801 -0.02249,0.01801 0.02249,-0.01801 m -0.322417,0.01236 -0.0075,0.01236 0.0075,-0.01236 m 2.571874,0.0061 -0.02249,0.01801 0.02249,-0.01801 m -2.429414,0.01801 0.02249,0.12604 -0.02249,-0.12604 m 0.134962,0.01801 -0.04499,0.072 0.04499,-0.072 m 0.494881,0.01801 0.02249,0.072 h 0.02249 l -0.04499,-0.072 m 1.394665,0.01801 0.02249,0.01801 -0.02249,-0.01801 m -1.687095,0 -0.02249,0.01801 0.02249,-0.01801 m -0.449891,0.01801 v 0.01801 l -0.08999,-0.03593 0.08999,0.01801 m 1.147225,0.01801 h -0.04499 l -0.02249,0.144014 0.112475,0.01801 v -0.01801 c -0.04408,-0.01236 -0.05746,-0.01801 0,-0.01801 v -0.01801 l -0.06748,0.01801 0.02249,-0.12604 m -0.719827,0 -0.02249,0.01801 0.02249,-0.01801 m 0.08999,0.01801 -0.02249,0.01801 0.02249,-0.01801 m -0.472385,0 -0.02249,0.01801 0.02249,-0.01801 m 1.799565,0.01801 0.02249,0.01801 -0.02249,-0.01801 m -1.597115,0 v 0.03593 h -0.04499 v -0.03593 h 0.04499 m 1.70959,0.01801 0.02249,0.01801 -0.02249,-0.01801 m -1.91204,0 -0.02249,0.01801 0.02249,-0.01801 m -0.112474,0 0.02249,0.03593 h -0.04499 l 0.02249,-0.03593 m -0.04499,0 -0.02249,0.01801 0.02249,-0.01801 m 2.002021,0.01801 0.02249,0.01801 -0.02249,-0.01801 m -0.134962,0.01801 v 0.01801 h 0.06748 l -0.06748,-0.01801 m -1.687095,0.01801 -0.02249,0.01801 0.02249,-0.01801 m 0.674835,0.01801 0.02249,0.01801 -0.02249,-0.01801 m -0.08997,0 0.02249,0.01801 -0.02249,-0.01801 m -0.359914,0.01801 v 0.01801 h -0.08999 l 0.08999,-0.01801 m 2.811825,0.01801 0.02249,0.01801 -0.02249,-0.01801 m -2.249461,0 v 0.01801 h 0.06748 l -0.06748,-0.01801 m -0.427397,0 -0.02249,0.01801 0.02249,-0.01801 m 0.899782,0.01801 0.02249,0.01801 -0.02249,-0.01801 m -0.112474,0.0061 c -0.01742,0 -0.0037,0.0093 0.0075,0.0061 l -0.0075,-0.0061 m -0.607356,-0.0061 -0.06748,0.05404 0.06748,-0.05404 m -0.224945,0 -0.02249,0.01801 0.02249,-0.01801 m 0.472387,0.01801 v 0.01801 h 0.06748 l -0.06748,-0.01801 m 2.226966,0.01801 0.02249,0.01801 -0.02249,-0.01801 m -2.114494,0 v 0.01801 h 0.06748 l -0.06748,-0.01801 m -0.157468,0 0.02249,0.01801 -0.02249,-0.01801 m -0.04499,0 0.02249,0.01801 -0.02249,-0.01801 m 2.226966,0.01801 0.04499,0.08997 0.04499,-0.072 -0.08999,-0.01801 m -0.08999,0.072 v 0.01801 l 0.08999,0.01801 -0.08999,-0.03594 m -0.04499,0.03594 -0.02249,0.03593 0.02249,-0.03593 m -3.576642,0.144107 c 0.10543,0.108549 0.388211,0.233445 0.562366,0.197976 l 0.112475,0.01801 0.134961,0.03593 -0.382407,-0.120325 -0.427397,-0.131769 m 0.539871,0.179997 -0.02249,0.01801 0.02249,-0.01801 m -0.04499,0 -0.02249,0.01801 0.02249,-0.01801 m 0.359914,0.07789 -0.0075,0.0061 c 0.01103,0.0031 0.02489,-0.0061 0.0075,-0.0061 m -0.92228,0.264041 0.224946,0.593971 0.06748,0.161991 0.247442,-0.179997 0.49488,-0.359983 -0.427395,-0.06133 -0.607356,-0.154686 m 0.787311,1.06194 c -0.171615,0.06614 -0.263951,0.278444 -0.328152,0.413978 -0.04234,0.08952 -0.06028,0.190081 -0.189225,0.215981 l -0.06748,0.03594 0.04499,0.03608 v 0.01801 l -0.08999,0.01801 c 0.0083,0.0508 0.0258,0.08254 -0.04499,0.08997 v 0.01801 l -0.02249,0.03608 v 0.01801 l 0.04499,0.01801 -0.179955,0.179972 -0.02249,-0.01801 0.02249,0.05404 -0.06748,0.01801 -0.08999,0.179997 -0.06748,-0.01801 -0.112475,0.25199 -0.02249,-0.03593 h -0.02249 l 0.02249,0.05404 -0.04499,0.05404 -0.179956,0.144012 0.02249,0.03593 -0.224945,0.215981 -0.02249,-0.01801 -0.06748,0.107925 c -0.0021,0.08254 -0.06582,0.162326 -0.157468,0.197976 0.0041,0.09291 -0.107346,0.189873 -0.202454,0.233985 l 0.04499,0.03593 -0.02249,0.05404 h -0.112473 c 0.01142,0.102037 -0.07478,0.180152 -0.157468,0.25199 l 0.04499,-0.072 -0.08999,0.12604 -0.06748,0.072 -0.04499,0.126041 -0.02249,-0.01801 0.02249,0.072 -0.112475,0.01801 c -0.0287,0.105771 -0.09676,0.329386 -0.247439,0.359985 0.04463,0.147098 -0.13262,0.308666 -0.179956,0.44996 l -0.06748,-0.01801 -0.06748,0.25199 -0.02249,-0.05404 h -0.06748 l 0.06748,0.05404 -0.112475,0.107924 v 0.197976 l -0.112474,0.05404 v 0.03594 h -0.02249 c 0.02372,0.06502 0.03886,0.09321 -0.02249,0.144013 l 0.02249,0.08997 h -0.02249 l -0.02249,-0.06253 h -0.02249 l 0.04499,0.107924 -0.04499,0.03593 -0.06748,-0.03593 0.06748,0.144012 h -0.02249 l -0.02249,-0.072 h -0.02249 l 0.04499,0.12604 -0.08999,0.01801 -0.06748,0.395985 -0.08999,-0.01801 0.02249,0.05404 h 0.02249 l -0.02249,-0.0361 h 0.02249 v 0.126041 l -0.06748,-0.01801 v 0.01801 l 0.06748,0.01801 -0.06748,0.01801 v 0.01801 l 0.06748,0.05404 -0.04499,-0.01801 v 0.01801 l 0.06748,0.05404 -0.08997,-0.01801 -0.04124,0.612335 -0.0037,0.431615 0.02624,0.144013 0.08621,0.431969 -0.02249,0.233986 h 0.02249 l 0.02249,-0.179997 h 0.02249 c 0.0046,0.05142 0.0039,0.072 0.06748,0.072 l 0.04499,0.28798 h 0.02249 v -0.072 h 0.02249 v 0.539976 h 0.02249 v -0.215981 h 0.02249 v 0.03593 h 0.02249 l 0.02249,-0.108084 -0.06748,0.03593 0.02249,-0.161992 h 0.02249 v 0.072 h 0.02249 l 0.02249,-0.05404 c 0.150482,0.01236 0.124802,-0.213821 0.157468,-0.305991 l -0.04499,-0.072 0.06748,0.01801 0.179955,-0.719949 -0.02249,-0.08997 c 0.107327,-0.01077 0.09425,-0.131609 0.06748,-0.198003 0.129117,-0.06628 0.12097,-0.249289 0.134961,-0.359967 h 0.02249 l 0.02249,0.12604 h 0.02249 v -0.144014 l -0.06748,-0.072 c 0.165461,-0.01595 0.157004,-0.291588 0.157468,-0.395968 l 0.06748,0.01801 0.112474,-0.431986 0.06748,0.01801 0.02249,-0.161992 h 0.02249 v 0.107925 h 0.02249 v -0.233986 -0.01801 h 0.04499 v -0.01801 l -0.04499,-0.01801 0.02249,-0.01801 0.08997,0.01801 -0.0012,-0.161993 0.06874,-0.05404 h 0.02249 l 0.06748,-0.144014 0.02249,0.01801 -0.02249,-0.072 0.13622,-0.09059 0.358654,-0.305447 -0.04499,-0.05404 0.04499,-0.01801 0.06748,-0.144014 0.02249,0.01801 -0.08999,-0.05404 0.08999,-0.01801 0.02249,-0.072 -0.224945,0.107924 0.04499,-0.05404 c -0.0417,-0.03127 0.0075,-0.03886 0.04499,-0.01801 l -0.02249,-0.072 0.134962,-0.05404 0.202452,-0.251992 v -0.144012 c 0.03841,0.0061 0.0787,0.0016 0.02249,-0.01801 v -0.01801 h 0.06748 v -0.01801 l -0.06748,-0.03608 0.08999,0.01801 0.02249,-0.01801 v -0.05404 l -0.04499,0.01801 0.06748,-0.072 0.02249,0.05404 h 0.02249 l 0.02249,-0.161993 h -0.02249 l -0.404904,0.377976 0.112474,-0.144013 0.06748,-0.144013 0.06748,-0.161992 h -0.06748 v -0.01801 l 0.159635,-0.01851 0.0878,-0.08952 v -0.01801 l -0.112474,0.107924 0.02249,-0.08997 -0.08999,0.072 0.134962,-0.107924 0.134961,-0.164127 0.337422,-0.357831 h -0.04499 l 0.08999,-0.072 -0.04499,-0.05404 0.06748,0.01801 -0.02249,-0.072 0.06748,-0.144012 h 0.02249 l 0.02249,0.05404 0.112475,-0.107924 v -0.01801 h -0.06748 l 0.06748,-0.05404 -0.04499,-0.03593 h 0.06748 l 0.06748,-0.03593 V 71.5966 l -0.06748,0.01801 0.157468,-0.179997 0.02249,0.05404 h 0.04499 l 0.02249,-0.05404 -0.06748,0.01801 -0.02249,-0.01801 0.04499,-0.107924 h -0.06748 l 0.06748,-0.03593 -0.08999,-0.072 0.06748,-0.107924 h 0.08999 l -0.06748,0.12604 h 0.04499 l -0.02249,0.05404 0.08997,-0.072 -0.06748,0.01801 0.04499,-0.072 h 0.02249 l 0.06748,0.03593 -0.02249,-0.072 -0.06748,0.01801 0.112474,-0.03609 0.02249,-0.01801 -0.04499,-0.072 0.06748,0.01801 v -0.01801 l 0.02249,-0.21598 0.06748,0.01801 0.04499,-0.144013 v -0.01801 l -0.06748,-0.01801 v -0.12604 l 0.08999,0.03608 0.08997,-0.485979 h 0.02249 l 0.02249,0.12604 h 0.02249 l 0.04499,-0.08997 -0.02249,-0.03593 0.04499,-0.144014 0.02249,0.01801 -0.02249,-0.072 0.157468,-0.05404 v 0.03593 l -0.112474,0.05404 0.04499,0.05404 h 0.02249 l -0.02249,-0.072 0.134962,0.03593 0.04499,-0.17997 0.134961,0.01801 0.02249,-0.05404 0.08999,-0.01801 v 0.03594 l 0.112475,-0.144014 0.20245,-0.01801 v -0.12604 l 0.08999,0.01801 v 0.01801 h -0.04499 v 0.01801 l 0.134961,0.01801 c 0.108198,-0.08952 0.305949,-0.07277 0.449894,-0.072 0.07354,3.74e-4 0.156965,0.01389 0.20245,-0.03593 l 0.112474,-0.03593 0.179956,0.01801 v -0.01801 l -0.157469,-0.01801 v -0.01801 l 0.314925,-0.01801 v 0.01801 l -0.08999,0.01801 v 0.01801 l 0.247439,-0.01801 v -0.01801 h -0.134961 v -0.01801 l 0.382405,-0.08997 -0.04499,0.05404 0.08999,-0.03593 -0.02249,0.03593 0.224945,0.05404 -0.02249,0.01801 c 0.11261,0.0061 0.31243,0.133622 0.38241,0.03593 h -0.02249 l -0.02249,0.03593 c -0.01509,-0.09059 -0.09541,-0.147254 -0.18131,-0.204277 -0.193192,-0.128379 -0.436529,-0.204279 -0.673489,-0.263517 -0.253581,-0.06317 -0.587445,-0.14463 -0.854794,-0.123874 -0.460216,0.03624 -0.9066,0.312461 -1.259698,0.537637 -0.149031,0.09506 -0.296501,0.192395 -0.424384,0.305972 -0.06156,0.05465 -0.129543,0.107313 -0.13798,0.179997 m -0.652342,-0.809945 -0.02249,0.01801 0.02249,-0.01801 m 3.171739,0.08997 v 0.01801 h -0.06748 l 0.06748,-0.01801 m -0.112474,0 v 0.01801 h -0.06748 l 0.06748,-0.01801 m -0.652342,0 -0.02249,0.01801 0.02249,-0.01801 m 0.464895,0.03004 -0.0075,0.01236 0.0075,-0.01236 m -0.53238,-0.01236 0.06748,0.01801 v 0.01801 l -0.04499,0.03593 h -0.02249 v -0.072 m 0.899784,0.03593 v 0.01801 l -0.179955,-0.01801 h 0.179955 m -0.697334,-0.01801 -0.04499,0.03593 0.04499,-0.03593 m -0.292429,0 v 0.01801 h -0.06748 l 0.06748,-0.01801 m -0.08999,0 -0.02249,0.01801 0.02249,-0.01801 m 0.899785,0.03593 v 0.01801 h -0.06748 l 0.06748,-0.01801 m -0.202452,0 -0.02249,0.01801 0.02249,-0.01801 m -0.09748,0.01236 -0.0075,0.01236 0.0075,-0.01236 m -0.04499,0.01801 -0.0075,0.01236 0.0075,-0.01236 m -0.457406,-0.0061 -0.0149,0.0061 0.0149,-0.0061 m -0.299919,-0.0061 -0.02249,0.01801 0.02249,-0.01801 m -0.06748,0.01801 -0.02249,0.01801 0.02249,-0.01801 m 1.642105,0.01801 -0.02249,0.03593 h 0.04499 l -0.02249,-0.03593 m -0.292429,0 v 0.03593 l -0.112474,-0.01801 0.112474,-0.01801 m -0.179955,0 -0.06748,0.03593 0.06748,-0.03593 m -0.359914,0.01801 -0.02249,0.01801 0.02249,-0.01801 m -0.719827,0 v 0.01801 l -0.08999,0.01801 v -0.01801 l 0.08999,-0.01801 m 2.024512,0.01801 -0.02249,0.01801 0.02249,-0.01801 m -0.292429,0 0.02249,0.01801 -0.02249,-0.01801 m -0.29243,0 -0.02249,0.072 0.08999,-0.072 h -0.06723 m -1.597115,0 -0.06748,0.03608 v -0.01801 l 0.06748,-0.01801 m 1.82206,0.01801 0.02249,0.01801 -0.02249,-0.01801 m 0.464895,0.03004 -0.0075,0.01236 0.0075,-0.01236 m -1.027257,0.02392 0.02249,0.01801 -0.02249,-0.01801 m -0.38241,0 -0.02249,0.01801 0.02249,-0.01801 m -0.899783,0 -0.02249,0.01801 0.02249,-0.01801 m 2.159481,0.03593 0.02249,0.01801 -0.02249,-0.01801 m -0.157468,0 0.02249,0.01801 -0.02249,-0.01801 m -2.181976,0 v 0.03593 l -0.04499,-0.03593 h 0.04499 m 2.631868,0.01801 0.02249,0.01801 -0.02249,-0.01801 m -0.404904,0 0.04499,0.03593 -0.04499,-0.03593 m -0.404902,0 v 0.03593 h 0.04499 v -0.03593 h -0.04502 m 0.787311,0.04195 c -0.01742,0 -0.0037,0.0093 0.0075,0.0061 l -0.0075,-0.0061 m -2.339438,-0.0061 -0.02249,0.01801 0.02249,-0.01801 m -0.04499,0 -0.02249,0.01801 0.02249,-0.01801 m -0.382409,0 -0.02249,0.01801 0.02249,-0.01801 m -0.112475,0 -0.02249,0.01801 0.02249,-0.01801 m 2.946795,0.03593 0.02249,0.01801 -0.02249,-0.01801 m -0.832301,0 0.02249,0.01801 -0.02249,-0.01801 m -1.079743,0 0.02249,0.01801 -0.02249,-0.01801 m -0.944773,0 -0.02249,0.01801 0.02249,-0.01801 m -0.08248,0.02392 -0.0149,0.0061 0.0149,-0.0061 m 2.939304,0.01236 0.02249,0.01801 -0.02249,-0.01801 m -2.624381,0.0061 -0.0149,0.0061 0.0149,-0.0061 m -0.389898,-0.0061 -0.04499,0.03593 v -0.03593 h 0.04499 m 0.337421,0.01801 -0.269937,0.179997 -0.08999,0.01801 c -0.07553,-0.0077 -0.101734,-0.0013 -0.134962,0.05404 l -0.06748,-0.03594 0.02249,0.072 v 0.01801 l -0.04499,0.08997 h -0.02249 l -0.02249,-0.28798 h 0.02249 v 0.144013 h 0.02249 v -0.180004 l 0.04499,0.03593 h 0.02249 l 0.04499,-0.03593 0.02249,0.05404 -0.08999,0.08997 c 0.05895,-0.05297 0.09171,-0.06906 0.179956,-0.05404 l -0.06748,-0.03593 v -0.01801 l 0.314924,-0.05404 v -0.01801 h -0.08999 l 0.202454,-0.03593 m -0.262445,0.04195 -0.0149,0.0061 0.0149,-0.0061 m -0.187445,-0.0061 -0.02249,0.01801 0.02249,-0.01801 m 0.539869,0.01801 -0.02249,0.01801 0.02249,-0.01801 m -0.449891,0.03593 -0.06748,-0.03593 0.06748,0.03593 m 0.539871,-0.01801 0.06748,0.03593 -0.06748,-0.03593 m -0.134962,0 v 0.05404 l -0.224946,0.01801 v -0.01801 l 0.179955,-0.03593 -0.02249,-0.01801 h 0.06748 m 0.08999,0.01801 0.02249,0.01801 -0.02249,-0.01801 m -0.809804,0 -0.02249,0.01801 0.02249,-0.01801 m 0.112474,0.01801 0.02249,0.01801 -0.02249,-0.01801 m -0.112474,0.03593 v 0.197976 l -0.08623,0.0031 -0.09374,0.158957 h -0.02249 l 0.0029,0.21598 0.03187,0.213641 -0.03125,0.08609 0.04155,0.222283 h -0.02249 l -0.04499,-0.503973 h -0.02249 l -0.04499,0.12604 H 75.1876 l 0.06748,-0.43197 0.112474,-0.197976 c 0.05428,-0.0047 0.102876,-0.04118 0.04499,-0.072 v -0.01801 h 0.08999 m -0.112474,0.01801 -0.02249,0.01801 0.02249,-0.01801 m 0.06748,0.01801 0.02249,0.01801 -0.02249,-0.01801 m -0.06748,0.01801 v 0.01801 h -0.08999 l 0.08999,-0.01801 m 0.479876,0.04195 -0.0149,0.0061 0.0149,-0.0061 m -0.592349,0.01236 -0.02249,0.01801 0.02249,-0.01801 m -0.04499,0.072 -0.02249,0.01801 0.02249,-0.01801 m 0.314922,0.08997 -0.02249,0.01801 0.02249,-0.01801 m 0.134962,0.01801 0.02249,0.01801 -0.02249,-0.01801 m -0.04499,0 0.02249,0.01801 -0.02249,-0.01801 m -0.157468,0 -0.02249,0.01801 0.02249,-0.01801 m -0.382407,0 -0.02249,0.01801 0.02249,-0.01801 m 0.494882,0.01801 -0.02249,0.01801 0.02249,-0.01801 m 0.04499,0.072 0.06748,-0.05404 -0.06748,0.05404 m -0.562364,-0.05404 -0.02249,0.01801 0.02249,-0.01801 m 0.517376,0.01801 v 0.08997 h -0.02249 l -0.02249,-0.08997 h 0.04499 m -0.112475,0.01801 -0.08997,0.107924 0.04499,0.144014 h -0.02255 l -0.02247,-0.125828 h -0.02249 v 0.03593 h -0.02249 l 0.134962,-0.161991 m -0.382407,0.107924 -0.02249,0.01801 0.02249,-0.01801 m 0.427397,0.05404 0.02249,0.01801 -0.02249,-0.01801 m -0.179955,0.01801 0.02249,0.161993 h -0.02249 v -0.161993 m 0.179955,0.144014 0.02249,0.01801 -0.02249,-0.01801 m -0.112475,0 -0.02249,0.01801 0.02249,-0.01801 m -0.134961,0 -0.02249,0.01801 0.02249,-0.01801 m 0.112474,0.03593 v 0.03593 h -0.04499 l 0.04499,-0.03593 m -0.472386,0 -0.02249,0.01801 0.02249,-0.01801 m -0.02249,0.03593 0.02249,0.05404 h -0.02249 v -0.05404 m -0.02249,0.03609 -0.02249,0.01801 0.02249,-0.01801 m 0.554877,0.03004 -0.0075,0.01236 0.0075,-0.01236 m -0.194961,0.0061 v 0.05404 h -0.04499 v -0.05404 h 0.04499 m -0.539871,0.01801 v 0.05404 h -0.02249 l 0.02249,-0.05404 m 0.644853,0.03004 -0.0075,0.01236 0.0075,-0.01236 m 0.07497,0.0061 v 0.05404 h 0.02249 l -0.02249,-0.05404 m -0.674839,0.03609 -0.02249,0.01801 0.02249,-0.01801 m -0.08999,0 -0.02249,0.01801 0.02249,-0.01801 m 0.584861,0.03593 0.02249,0.269989 h -0.02249 l -0.06748,-0.215982 0.04499,0.03593 h 0.02249 v -0.08997 m -0.599867,0.0061 -0.0149,0.0061 0.0149,-0.0061 m 0.502398,0.02418 -0.0075,0.01236 0.0075,-0.01236 m 0.164957,0.0061 0.02249,0.01801 -0.02249,-0.01801 m -0.209943,0.04799 -0.0075,0.01236 0.0075,-0.01236 m 0.03,0.04197 0.02249,0.05404 0.02249,-0.03593 h 0.02249 l -0.04499,0.107924 h 0.06748 v 0.12604 h -0.02249 l -0.04499,-0.05404 -0.02249,-0.197976 m -0.652344,0.01801 0.02249,0.01801 -0.02249,-0.01801 m 0.772307,0.04799 0.0075,0.01236 -0.0075,-0.01236 m -0.119963,0.0061 0.02249,0.01801 -0.02249,-0.01801 m 0.20245,0.01801 0.02249,0.01801 -0.02249,-0.01801 m -0.02249,0.03593 0.02249,0.01801 -0.02249,-0.01801 m -0.202451,0 0.02249,0.072 h -0.02249 v -0.072 m -0.742325,0 0.02249,0.01801 -0.02249,-0.01801 m 0.629851,0.05404 -0.04499,0.05404 0.04499,-0.05404 m 0.299919,0.03004 0.0075,0.01236 -0.0075,-0.01236 m -0.142451,0.0061 0.02249,0.03608 h -0.04499 l 0.02249,-0.03608 m -0.104985,0.02392 -0.0149,0.0061 0.0149,-0.0061 m 0.05999,0.01236 0.08997,0.01801 -0.04499,0.072 h -0.08999 l 0.04499,-0.08997 m -0.06748,0.01801 -0.157468,0.161991 0.157468,-0.161991 m 0.06748,0.01801 v 0.03593 h 0.04499 l -0.04499,-0.03593 m -0.764817,0 -0.02249,0.01801 0.02249,-0.01801 m -0.104985,0.01236 0.0075,0.01236 -0.0075,-0.01236 m 0.982272,0.05993 0.02249,0.01801 -0.02249,-0.01801 m -0.179955,0.01801 0.02249,0.01801 -0.02249,-0.01801 m -0.02249,0.03608 0.02249,0.01801 -0.02249,-0.01801 m 0.157468,0.03593 -0.02249,0.072 h 0.02249 v -0.072 m -0.202452,0.01801 -0.02249,0.072 0.02249,0.05404 -0.04499,0.01801 0.02249,0.01801 -0.04499,-0.01801 v 0.01801 l -0.179955,0.359967 -0.06748,-0.01801 c -0.03439,0.1197 -0.201438,0.285456 -0.337417,0.341974 l 0.04499,-0.126041 h 0.02249 l 0.02249,0.03593 v -0.05404 h 0.04499 l -0.04499,-0.03609 v -0.01801 l 0.02249,-0.03593 h 0.02249 l 0.06748,0.05404 -0.06748,-0.072 v -0.01801 l 0.08999,0.03608 h 0.02249 l 0.04499,-0.03608 -0.02249,-0.107925 -0.06748,-0.03608 c 0.07727,-0.01774 0.146553,-0.06566 0.08999,-0.12604 l 0.157468,-0.08997 -0.02249,0.072 0.06748,-0.03593 -0.02249,0.03593 h 0.02249 l -0.04499,-0.107924 0.04499,-0.08997 h 0.02249 l -0.02249,0.05404 0.157468,-0.144014 m -0.08999,0 -0.02249,0.072 h -0.02249 l 0.04499,-0.072 m 0.247442,0.072 0.02249,0.01801 -0.02249,-0.01801 m -0.06748,0 0.02249,0.072 h 0.02249 l -0.04499,-0.072 m -0.322416,0.06612 -0.0075,0.01236 0.0075,-0.01236 m 0.254933,0.0061 -0.02249,0.01801 0.02249,-0.01801 m -0.157468,0.02392 c -0.01742,0 -0.0037,0.0093 0.0075,0.0061 l -0.0075,-0.0061 m 0.02249,0.03004 0.02249,0.01801 -0.02249,-0.01801 m 0.157468,0.07789 -0.0075,0.0061 c 0.01103,0.0031 0.02489,-0.0061 0.0075,-0.0061 m -1.064737,0.0061 -0.0075,0.01236 0.0075,-0.01236 m 0.997254,0.0061 0.06748,0.03593 v -0.01801 l -0.06748,-0.01801 m -0.224947,0 -0.134961,0.144014 0.06748,0.072 -0.02249,-0.072 0.06748,0.01801 0.02249,-0.161991 m -0.06748,0.01801 0.02249,0.01801 -0.02249,-0.01801 m 0.224946,0.01801 0.02249,0.01801 -0.02249,-0.01801 m 0.08999,0.01801 0.02249,0.01801 -0.02249,-0.01801 m -0.04499,0 0.04499,0.05404 -0.04499,-0.05404 m -0.314922,0 -0.02249,0.01801 0.02249,-0.01801 m 0.08999,0.072 -0.02249,0.01801 0.02249,-0.01801 m 0.157468,0.01801 -0.04499,0.05404 0.06748,-0.01801 -0.02249,0.05404 h 0.02249 l -0.02249,-0.08997 m -0.02249,0.113972 -0.0075,0.0061 c 0.01103,0.0031 0.02489,-0.0061 0.0075,-0.0061 m -0.06748,-0.0061 0.02249,0.01801 -0.02249,-0.01801 m 0.04499,0.03609 -0.04499,0.05404 0.04499,-0.05404 m -1.147226,0.01801 -0.02249,0.01801 0.02249,-0.01801 m 1.034753,0.05404 0.02249,0.01801 -0.02249,-0.01801 m 0.04499,0.01801 -0.02249,0.03608 0.02249,-0.03608 m -1.102236,0 -0.02249,0.01801 0.02249,-0.01801 m -0.02249,0.03608 -0.02249,0.01801 0.02249,-0.01801 m -0.134962,0 0.02249,0.01801 -0.02249,-0.01801 m 1.21471,0.01801 -0.06748,0.01801 -0.04499,0.126041 h 0.02249 l 0.08999,-0.144013 m 0,0.05404 0.02249,0.01801 -0.02249,-0.01801 m -1.259699,0 0.02249,0.01801 -0.02249,-0.01801 m 0,0.04195 c -0.01742,0 -0.0037,0.0093 0.0075,0.0061 l -0.0075,-0.0061 m 1.244694,0.02418 0.0075,0.01236 -0.0075,-0.01236 m -0.389898,-0.01236 -0.04499,0.03593 0.04499,-0.03593 m 0.224946,0.01801 -0.02249,0.01801 0.02249,-0.01801 m -0.202454,0.01801 -0.08997,0.072 0.08997,-0.072 m -0.944771,0 0.02249,0.01801 -0.02249,-0.01801 m 1.289682,0.03004 0.0075,0.01236 -0.0075,-0.01236 m -0.172447,0.01801 -0.0075,0.01236 0.0075,-0.01236 m -1.139732,-0.01236 0.02249,0.01801 -0.02249,-0.01801 m 1.282189,0.05404 0.02249,0.01801 -0.02249,-0.01801 m -0.06748,0.05404 0.02249,0.01801 -0.02249,-0.01801 m -1.297196,0.03004 0.0075,0.01236 -0.0075,-0.01236 m 1.072251,0.02393 -0.02249,0.01801 0.02249,-0.01801 m 0.179956,0.01801 0.02249,0.01801 -0.02249,-0.01801 m -1.327183,0.01801 -0.02249,0.03608 0.02249,-0.03608 m 1.304688,0.01801 0.02249,0.01801 -0.02249,-0.01801 m -1.192216,0 -0.02249,0.01801 0.02249,-0.01801 m -0.224946,0.05404 0.02249,0.01801 -0.02249,-0.01801 m 1.327182,0.03593 0.02249,0.01801 -0.02249,-0.01801 m 0.04499,0.01801 -0.02249,0.03593 0.02249,-0.03593 m -1.327181,0.03593 -0.02249,0.01801 0.02249,-0.01801 m 1.124729,0.03608 0.02249,0.01801 -0.02249,-0.01801 m 0.112474,0.01801 -0.02249,0.05404 0.02249,-0.05404 m -0.20245,0 -0.02249,0.072 h 0.02249 v -0.072 m 0.112474,0.01801 0.02249,0.01801 -0.02249,-0.01801 m -0.172465,0.06598 0.0075,0.01236 -0.0075,-0.01236 m 0.19496,0.0061 -0.02249,0.03609 0.02249,-0.03609 m 0.04499,0.04195 c -0.01742,0 -0.0037,0.0093 0.0075,0.0061 l -0.0075,-0.0061 m -0.08999,0.01236 0.02249,0.01801 -0.02249,-0.01801 m -0.06748,0 0.02249,0.01801 -0.02249,-0.01801 m 0.02249,0.03593 0.02249,0.01801 -0.02249,-0.01801 m -0.04499,0 0.02249,0.01801 -0.02249,-0.01801 m -0.247441,0.01801 -0.04499,0.03593 0.04499,-0.03593 m -0.967267,0 -0.02249,0.01801 0.02249,-0.01801 m 1.237201,0.01801 -0.02249,0.05404 0.02249,-0.05404 m -0.20245,0 -0.02249,0.01801 0.02249,-0.01801 m -1.169718,0.01801 0.02249,0.01801 -0.02249,-0.01801 m 1.469637,0.03004 0.0075,0.01236 -0.0075,-0.01236 m -0.434886,-0.01236 -0.04499,0.03593 0.04499,-0.03593 m -0.899784,0 -0.02249,0.01801 0.02249,-0.01801 m 1.124731,0.01801 0.02249,0.01801 -0.02249,-0.01801 m -0.06748,0 0.02249,0.01801 -0.02249,-0.01801 m 0.134962,0.01801 -0.02249,0.03593 0.02249,-0.03593 m 0.112474,0.01801 -0.02249,0.03593 0.02249,-0.03593 m -0.382407,0.03593 -0.08999,0.072 0.08999,-0.072 m -1.16972,0 -0.02249,0.03593 0.02249,-0.03593 m 1.507139,0.03593 0.02249,0.01801 -0.02249,-0.01801 m -1.507139,0.01801 0.02249,0.01801 -0.02249,-0.01801 m 1.214708,0.02392 c -0.01742,0 -0.0037,0.0093 0.0075,0.0061 l -0.0075,-0.0061 m 0.232436,0.04211 0.0075,0.01236 -0.0075,-0.01236 m -0.299919,0.0061 v 0.01801 h 0.06748 l -0.06748,-0.01801 m -0.06748,-0.01801 -0.02249,0.01801 0.02249,-0.01801 m -1.12473,0.01801 0.02249,0.01801 -0.02249,-0.01801 m 1.439655,0.05404 0.02249,0.01801 -0.02249,-0.01801 m -0.112475,0 -0.04499,0.03593 0.04499,-0.03593 m -1.214706,0 -0.04499,0.05404 0.04499,-0.05404 m 1.282189,0.03593 0.02249,0.01801 -0.02249,-0.01801 m -0.29243,0 -0.02249,0.01801 0.02249,-0.01801 m -1.064737,0.01236 -0.0075,0.01236 0.0075,-0.01236 m -0.04499,0 -0.0075,0.01236 0.0075,-0.01236 m -0.127473,0.07789 0.02249,0.01801 -0.02249,-0.01801 m 1.169721,0.01801 -0.02249,0.01801 0.02249,-0.01801 m -0.989763,0 -0.02249,0.01801 0.02249,-0.01801 m -0.224947,0 0.02249,0.01801 -0.02249,-0.01801 m 0.04499,0.01801 0.02249,0.01801 -0.02249,-0.01801 m 1.252207,0.03004 -0.0075,0.01236 0.0075,-0.01236 m -0.0825,0.0061 -0.06748,0.03593 v -0.01801 l 0.06748,-0.01801 m -1.102234,0.03594 -0.04499,0.05404 0.04499,-0.05404 m -0.179955,0.05404 0.02249,0.01801 -0.02249,-0.01801 m 0.134962,0.01801 -0.02249,0.01801 0.02249,-0.01801 m 1.237201,0.03608 -0.02249,0.01801 0.02249,-0.01801 m -0.08999,0.01801 v 0.05404 h -0.02249 l 0.02249,-0.05404 m -0.202452,0 -0.02249,0.01801 0.02249,-0.01801 m -1.012258,0 -0.02249,0.01801 0.02249,-0.01801 m 1.529635,0.03593 0.02249,0.01801 -0.02249,-0.01801 m -0.06748,0.05404 0.02249,0.01801 -0.02249,-0.01801 m -1.642107,0 0.02249,0.01801 -0.02249,-0.01801 m 1.057248,0.01801 -0.02249,0.01801 0.02249,-0.01801 m 0.389898,0.102036 0.0075,0.01236 -0.0075,-0.01236 m -0.119963,0.0061 0.02249,0.01801 -0.02249,-0.01801 m -1.192214,0.03593 -0.02249,0.01801 0.02249,-0.01801 m 1.057246,0.05404 c -0.01858,0.08207 -0.06287,0.112125 -0.157468,0.144013 l 0.157449,-0.144939 m 0.427395,0.01801 -0.02249,0.03609 0.02249,-0.03609 m -1.574622,0 -0.02249,0.01801 0.02249,-0.01801 m 1.079742,0.05404 0.02249,0.01801 -0.02249,-0.01801 m -1.237205,0 0.02249,0.01801 -0.02249,-0.01801 m 1.619612,0.01801 0.02249,0.01801 -0.02249,-0.01801 m -0.202452,0 -0.04499,0.08997 h -0.02249 l 0.06748,-0.08997 m -1.304685,0 -0.02249,0.01801 0.02249,-0.01801 m -0.194961,0.01236 0.0075,0.01236 -0.0075,-0.01236 m 1.387174,0.0061 v 0.03593 h -0.04499 l 0.04499,-0.03593 m -1.21471,0.01801 -0.06748,0.05404 0.06748,-0.05404 m 1.034753,0.03593 -0.02249,0.01801 0.02249,-0.01801 m -1.124731,0 v 0.072 l -0.06748,-0.05404 0.06748,-0.01801 m 1.484643,0.03593 0.02249,0.01801 -0.02249,-0.01801 m -0.134961,0 v 0.03609 h -0.04499 l 0.04499,-0.03609 m 0.08999,0.03609 0.02249,0.01801 -0.02249,-0.01801 m -0.112474,0.01801 v 0.072 h -0.02249 l 0.02249,-0.072 m -1.327181,0 -0.02249,0.01801 0.02249,-0.01801 m 1.37217,0.01801 -0.02249,0.01801 0.02249,-0.01801 m -0.427425,0.03674 -0.02249,0.01801 0.02249,-0.01801 m -0.989763,0.01801 -0.02249,0.01801 0.02249,-0.01801 m 1.327183,0.01801 v 0.03593 h -0.04499 l 0.04499,-0.03593 m -0.404902,0.03593 -0.02249,0.01801 0.02249,-0.01801 m -0.944776,0 -0.04499,0.03593 v -0.03763 h 0.04499 m -0.179955,0 0.02249,0.01801 -0.02249,-0.01801 m 0.04499,0.01801 0.02249,0.01801 -0.02249,-0.01801 m 1.034751,0.01801 -0.04499,0.03593 0.04499,-0.03593 m -0.944774,0.01801 v 0.01801 l -0.06748,0.05404 h -0.02249 l 0.08999,-0.072 m 1.259698,0.01801 -0.02249,0.01801 0.02249,-0.01801 m 0.134961,0.03593 0.02249,0.01801 -0.02249,-0.01801 m -1.61961,0.03593 0.02249,0.01801 -0.02249,-0.01801 m 1.574622,0.01801 0.02249,0.01801 -0.02249,-0.01801 m -1.41716,0 -0.02249,0.01801 0.02249,-0.01801 m -0.02249,0.03593 -0.02249,0.01801 0.02249,-0.01801 m -0.157468,0 0.02249,0.01801 -0.02249,-0.01801 m 0.134962,0.05404 -0.02249,0.01801 0.02249,-0.01801 m -0.134962,0.01801 0.02249,0.01801 -0.02249,-0.01801 m -0.02249,0.03593 0.02249,0.01801 -0.02249,-0.01801 m 1.304686,0.107924 0.02249,0.01801 -0.02249,-0.01801 m -1.372169,0.05404 0.02249,0.01801 -0.02249,-0.01801 m 1.327181,0.01801 0.02249,0.01801 -0.02249,-0.01801 m -0.02249,0.03593 0.02249,0.01801 -0.02249,-0.01801 m -0.449894,0.03593 -0.02249,0.01801 0.02249,-0.01801 m -0.764816,0 -0.02249,0.01801 0.02249,-0.01801 m 1.102235,0.01801 -0.02249,0.01801 0.02249,-0.01801 m -0.02249,0.03593 -0.02249,0.01801 0.02249,-0.01801 m -1.237203,0 0.02249,0.01801 -0.02249,-0.01801 m 1.214708,0.03593 -0.02249,0.01801 0.02249,-0.01801 m -1.259698,0 0.02249,0.01801 -0.02249,-0.01801 m 1.282193,0.03593 -0.02249,0.01801 0.02249,-0.01801 m -0.04499,0 -0.02249,0.01801 0.02249,-0.01801 m -0.06748,0.01801 -0.02249,0.01801 0.02249,-0.01801 m -1.042243,0.03004 -0.0075,0.01236 0.0075,-0.01236 m 1.064738,0.0061 -0.02249,0.107924 0.02249,-0.05404 -0.04499,0.01801 0.04499,-0.072 m -1.21471,0.01801 0.02249,0.01801 -0.02249,-0.01801 m 0.02249,0.05993 c -0.01742,0 -0.0037,0.0093 0.0075,0.0061 l -0.0075,-0.0061 m 1.267187,0.02418 0.0075,0.01236 -0.0075,-0.01236 m -0.119964,-0.01236 0.02249,0.072 h -0.02249 v -0.072 m -1.21471,0.03593 0.02249,0.01801 -0.02249,-0.01801 m 1.192213,0.01801 v 0.05404 l -0.04499,-0.01801 v -0.01801 l 0.04499,-0.01801 m -1.214708,0.03593 0.02249,0.01801 -0.02249,-0.01801 m 0.149979,0.03004 -0.0075,0.01236 0.0075,-0.01236 m 1.04224,0.0061 -0.02249,0.01801 0.02249,-0.01801 m -1.169718,0 0.02249,0.05404 h 0.02249 l -0.04499,-0.05404 m 1.37217,0.03609 0.02249,0.01801 -0.02249,-0.01801 m -0.24744,0 -0.02249,0.01801 0.02249,-0.01801 m 0.05248,0.02392 -0.0149,0.0061 0.0149,-0.0061 m -1.244694,-0.0061 0.02249,0.01801 -0.02249,-0.01801 m 1.169718,0.03594 -0.02249,0.01801 0.02249,-0.01801 m -1.094744,0.03004 0.0075,0.01236 -0.0075,-0.01236 m 1.139734,0.0061 0.02249,0.072 h 0.02249 l -0.04499,-0.072 m -0.08999,0.05404 -0.02249,0.01801 0.02249,-0.01801 m -0.989763,0 0.02249,0.03593 -0.02249,-0.03593 m -0.179955,0 0.02249,0.01801 -0.02249,-0.01801 m 1.214708,0.03593 v 0.05404 h -0.02249 l 0.02249,-0.05404 m -1.16972,0 v 0.05404 h 0.02249 l -0.02249,-0.05404 m 1.102235,0.01801 -0.02249,0.01801 0.02249,-0.01801 m -1.147223,0 0.02249,0.01801 -0.02249,-0.01801 m 1.32718,0.03593 -0.04499,0.144012 h 0.04499 v -0.144012 m -0.14245,0.03004 -0.0075,0.01236 0.0075,-0.01236 m -1.207217,-0.01236 0.02249,0.01801 -0.02249,-0.01801 m 1.147223,0.05404 0.02249,0.05404 h -0.02249 v -0.05404 m -1.124728,0.03609 0.02249,0.01801 -0.02249,-0.01801 m 1.169718,0.03593 -0.02249,0.01801 0.02249,-0.01801 m -1.034751,0.01801 -0.02249,0.01801 0.02249,-0.01801 m 0.944773,0.05404 -0.02249,0.01801 0.02249,-0.01801 m 0.187445,0.03004 0.0075,0.01236 -0.0075,-0.01236 m -0.134962,0.05404 0.0075,0.01236 -0.0075,-0.01236 m -0.119963,-0.01236 -0.02249,0.01801 0.02249,-0.01801 m -1.057246,0 0.02249,0.01801 -0.02249,-0.01801 m 1.154714,0.06612 0.0075,0.01236 -0.0075,-0.01236 m -0.127453,0 -0.0075,0.01236 0.0075,-0.01236 m 0.03,0.05993 v 0.05404 h -0.02249 l 0.02249,-0.05404 m 0.119964,0.06612 0.0075,0.01236 -0.0075,-0.01236 m 0.05999,0.02392 -0.02249,0.144013 h 0.02249 v -0.144013 m -0.224946,0 -0.02249,0.01801 0.02249,-0.01801 m -0.04499,0 0.02249,0.05404 -0.04499,0.05404 h -0.02249 l 0.04499,-0.107924 m -0.05248,0.138122 -0.0075,0.01236 0.0075,-0.01236 m 0.119964,0.02392 0.02249,0.01801 -0.02249,-0.01801 m -0.142451,0.03004 -0.0075,0.01236 0.0075,-0.01236 m -0.757329,0.0061 -0.02249,0.01801 0.02249,-0.01801 m -0.04499,0.01801 -0.02249,0.08997 h -0.02249 l 0.04499,-0.08997 m 0.787309,0.01801 v 0.05404 h -0.02249 l 0.02249,-0.05404 m 0.292431,0.05404 0.02249,0.01801 -0.02249,-0.01801 m -0.337419,0.072 v 0.05404 h -0.02249 l 0.02249,-0.05404 m 0.29243,0.01801 -0.06748,0.197976 h 0.04499 l 0.02249,-0.197976 m -0.239951,0.04195 -0.0149,0.0061 0.0149,-0.0061 m 0.08248,0.01236 0.02249,0.12604 h 0.02249 l -0.04499,-0.12604 m 0,0.21598 0.02249,0.01801 -0.02249,-0.01801 m -0.08999,0 v 0.072 h 0.02249 l -0.02249,-0.072 m -0.06748,0.072 -0.02249,0.01801 0.02249,-0.01801 m -0.269932,0 -0.02249,0.01801 0.02249,-0.01801 m 0.389898,0.03004 0.0075,0.01236 -0.0075,-0.01236 m -0.239929,0.01801 -0.0075,0.01236 0.0075,-0.01236 m -0.802313,0.05993 0.02249,0.01801 -0.02249,-0.01801 m 0.989761,0.01801 0.02249,0.01801 -0.02249,-0.01801 m -0.06748,0 0.02249,0.01801 -0.02249,-0.01801 m -0.157468,0 -0.02249,0.01801 0.02249,-0.01801 m -0.562364,0.01801 -0.02249,0.01801 0.02249,-0.01801 m 0.787311,0.05404 v 0.072 h 0.02249 l -0.02249,-0.072 m -0.899786,0 0.02249,0.05404 -0.02249,-0.05404 m 0.314927,0.08997 v 0.072 h -0.02249 l 0.02249,-0.072 m 0.149979,0.06612 -0.0075,0.01236 0.0075,-0.01236 m 0.209939,0.07789 v 0.05404 h -0.02249 l 0.02249,-0.05404 m -0.652342,0 0.02249,0.01801 -0.02249,-0.01801 m 0.20245,0.03593 v 0.072 h -0.02249 l 0.02249,-0.072 m 0.359916,0.01801 -0.02249,0.01801 0.02249,-0.01801 m -0.247441,0.03593 -0.02249,0.01801 0.02249,-0.01801 m 0.292429,0.03609 0.02249,0.03593 -0.02249,-0.03593 m -0.562364,0.01801 v 0.05404 h 0.02249 l -0.02249,-0.05404 m 0,0.08997 v 0.05404 h 0.02249 l -0.02249,-0.05404 m 0.44989,0.01801 -0.02249,0.01801 0.02249,-0.01801 m 0.247441,0.03593 v 0.072 h 0.02249 l -0.02249,-0.072 m -0.472386,0 -0.02249,0.144014 h -0.02249 V 77.28497 h 0.04499 m 0.08999,0.03594 -0.02249,0.107925 h -0.0225 l 0.04499,-0.107925 m -0.352421,0.03004 0.0075,0.01236 -0.0075,-0.01236 m 0.457402,0.01801 -0.0075,0.01236 0.0075,-0.01236 M 71.5435,77.500888 v 0.072 h 0.02249 l -0.02249,-0.072 m 0.329928,0.04799 -0.0075,0.01236 0.0075,-0.01236 m -0.374916,0.0061 -0.06748,0.05404 v 0.01801 l 0.04499,0.03593 h 0.02249 v -0.107924 m -0.06748,0 0.02249,0.01801 -0.02249,-0.01801 m 0.382408,0.01801 -0.02249,0.12604 h -0.02249 l 0.04499,-0.12604 m -0.08997,0 v 0.05404 h -0.02249 l 0.02249,-0.05404 m -0.292429,0.072 0.02249,0.01801 -0.02249,-0.01801 m 0.05248,0.04799 0.0075,0.01236 -0.0075,-0.01236 m -0.0075,0.04195 v 0.072 h 0.02249 l -0.02249,-0.072 m 1.327181,0.08997 0.02249,0.01801 -0.02249,-0.01801 m -0.757325,0.01236 0.0075,0.01236 -0.0075,-0.01236 m -0.209944,0.02989 -0.0075,0.0061 c 0.01103,0.0031 0.02489,-0.0061 0.0075,-0.0061 m -0.337417,0.01236 0.02249,0.01801 -0.02249,-0.01801 m 0.04499,0.01801 0.02249,0.05404 h 0.02249 l -0.04499,-0.05404 m 0.08999,0.01801 0.02249,0.01801 -0.02249,-0.01801 m -0.08999,0.072 0.02249,0.01801 -0.02249,-0.01801 m 0.449892,0.01801 0.02249,0.01801 -0.02249,-0.01801 m -0.359914,0 0.02249,0.05404 h 0.02249 l -0.04499,-0.05404 m -0.08999,0.03608 0.02249,0.01801 -0.02249,-0.01801 m 0.06748,0.072 0.02249,0.01801 -0.02249,-0.01801 m 0.05248,0.08408 0.0075,0.01236 -0.0075,-0.01236 m 0.08248,0.09599 0.02249,0.01801 -0.02249,-0.01801 m 0.854797,0.03593 0.02249,0.01801 -0.02249,-0.01801 m -0.899785,0 0.02249,0.01801 -0.02249,-0.01801 m 0.08999,0.03593 0.02249,0.01801 -0.02249,-0.01801 m -0.04499,0 0.02249,0.01801 -0.02249,-0.01801 m 0.06748,0.05402 0.02249,0.01801 -0.02249,-0.01801 m -0.02249,0.03601 0.02249,0.01801 -0.02249,-0.01801 m 0.854794,0.12604 0.02249,0.01801 -0.02249,-0.01801 m -0.629849,0.144039 0.02249,0.01801 -0.02249,-0.01801 m 0.134961,0.162043 0.02249,0.01801 -0.02249,-0.01801 m 0,0.09002 0.02249,0.01801 -0.02249,-0.01801 m 0.427397,0.108031 0.02249,0.01801 -0.02249,-0.01801 m -0.134961,0.07202 0.02249,0.01801 -0.02249,-0.01801 m -0.179955,0 0.02249,0.01801 -0.02249,-0.01801 m 0.224947,0.04192 -0.0075,0.0052 c 0.01103,0.0025 0.02489,-0.0052 0.0075,-0.0052 m -0.134962,0.01289 0.02249,0.01801 -0.02249,-0.01801 m 6.523434,30.130183 v 0.126 h -0.02249 z"
        id="path3461" /><g
        style="fill:#000000"
        id="g3471"
        transform="matrix(0.81410256,0,0,0.74840168,54.282961,26.514911)"><path
         d="m 96.914619,41.709155 4.075971,10.072651 -1.648315,43.567356 -2.336561,-0.613337 -2.44895,0.647942 -1.705257,-43.593988 z m 10.122991,61.903355 -0.002,-3.56272 -10.073311,-2.642194 -10.069917,2.661914 0.0023,3.56272 7.982919,-0.008 0.443822,11.32838 c -0.641835,0.61121 -1.056826,1.5689 -1.056263,2.64884 0.0012,1.84464 1.209896,3.33875 2.699858,3.33728 1.489967,-0.001 2.696771,-1.49792 2.6956,-3.34256 -7.19e-4,-1.07947 -0.416645,-2.03603 -1.058758,-2.64598 l 0.429351,-11.32988 z"
         id="path3463"
         style="stroke-width:0.200116" /></g></g><style
        type="text/css"
        id="style322">
</style></svg>
