<?xml version="1.0" encoding="UTF-8" standalone="no"?>
<svg
        height="48.800335"
        viewBox="0 -960 976.00662 976.0067"
        width="48.800331"
        version="1.1"
        id="svg60"
        xml:space="preserve"
        xmlns="http://www.w3.org/2000/svg"
        xmlns:svg="http://www.w3.org/2000/svg"><defs
     id="defs64" /><path
        d="M 299.62648,-92.207362 V -282.10202 H 111.24965 v -379.78932 h 188.37683 v -189.89465 h 376.75364 v 189.89465 h 188.37682 v 379.78932 H 676.38012 V -92.207362 Z M 167.76271,-500.48088 h 207.2145 q 7.13571,0 13.55748,3.42855 6.42177,3.42855 9.98962,8.91461 l 43.32667,66.46313 56.51305,-172.80414 q 2.90382,-8.54526 10.52743,-14.2421 7.62361,-5.69684 17.06223,-5.69684 7.26005,0 12.91135,3.79789 5.65131,3.7979 10.36073,9.49474 l 66.87377,100.64416 H 808.24389 V -604.92294 H 619.86707 V -794.81759 H 356.13953 v 189.89465 H 167.76271 Z m 188.37682,351.30512 h 263.72754 v -189.89466 h 188.37682 v -104.44206 h -207.2145 q -7.53507,0 -13.18638,-3.79789 -5.6513,-3.7979 -10.36072,-9.49474 l -43.32667,-65.51365 -57.45493,172.80414 q -2.80116,8.54525 -10.50577,14.24209 -7.70367,5.69684 -16.80887,5.69684 -7.53507,0 -13.18637,-3.79789 -5.65131,-3.79789 -9.41885,-9.49473 L 359.90706,-443.51248 H 167.76271 v 104.44206 H 356.13953 Z M 488.0033,-471.99668 Z"
        fill="#fd3311"
        id="path2473"
        style="fill:#000000;stroke:#000000;stroke-width:0.945671" /><ellipse
        style="fill:none;stroke:#000000;stroke-width:61.88;stroke-dasharray:none"
        id="path2638"
        ry="457.06332"
        rx="457.06329"
        cy="-471.99667"
        cx="488.0033" /></svg>
