<?xml version="1.0" encoding="UTF-8" standalone="no"?>
<svg
        width="212mm"
        height="212mm"
        viewBox="0 0 198.23462 211.66618"
        version="1.1"
        xml:space="preserve"
        xmlns="http://www.w3.org/2000/svg"
><g
        transform="translate(-8.7400353,-55.355238)"><path
       d="M 58.305775,9.7376814e-4 C 51.720818,0.01151477 47.320528,1.6391221 44.894155,4.9291188 43.496157,6.8241169 43.071162,8.9450157 43.152162,10.775014 L 9.0007749,236.08232 l 0.1295239,0.7349 C 11.217297,248.4532 21.071113,255.0907 36.955097,255.6917 l 4.698881,-31.95987 c -18.203982,-3.759 -23.526957,-12.1427 -23.526957,-12.1427 l 2.291258,-15.0892 c 8.142992,6.659 17.343388,9.68819 23.609382,11.07119 L 65.038251,64.688158 C 46.697269,60.944162 41.365839,52.496281 41.365839,52.496281 l 2.28641,-15.091275 c 8.186992,6.697993 17.485691,9.736972 23.759685,11.109971 l 3.930048,-26.71865 C 57.291996,18.65333 53.049221,13.980207 52.371222,11.50021 c -0.016,-0.228 -0.05198,-0.451097 -0.105975,-0.678096 0,-0.047 -0.01039,-0.101377 -0.01039,-0.143377 l 0.03117,-0.190477 -0.116364,-0.02147 c -0.016,-0.065 -0.02541,-0.127013 -0.04641,-0.187013 0.011,-0.016 1.366689,-1.6385075 8.595682,-1.2135079 13.984986,0.8649991 150.291335,23.1720599 182.846305,28.5160549 -1,2.443997 -1.75105,5.630359 -1.85905,9.671355 L 131.20769,30.917032 c 6.13399,26.607973 -1.80987,48.31383 -1.80987,48.31383 -1.872,-5.242995 -14.60158,-14.952055 -14.60158,-14.952055 -10.10999,10.14399 -19.100286,10.832915 -19.100286,10.832915 5.211996,-27.736972 2.625318,-42.403613 0.02632,-49.445606 L 80.207795,23.372087 46.091733,255.39179 c 0.323999,-0.031 0.652347,-0.0719 0.880347,-0.1039 l 183.60474,28.36644 c 0.233,0.036 0.46118,0.0519 0.68918,0.0519 2.148,0 4.03829,-1.53833 4.41629,-3.72433 L 274.63714,56.781655 c 0.207,-1.192999 -0.0768,-2.417642 -0.78684,-3.403641 -0.712,-0.986999 -1.78952,-1.639336 -2.99152,-1.813336 l -20.19951,-2.984593 c -0.099,-7.937992 3.01879,-10.512239 3.06079,-10.548239 1.538,-1.021999 2.29376,-2.878873 1.90476,-4.680872 -0.394,-1.807998 -1.83761,-3.197762 -3.66061,-3.495762 C 244.84422,28.681213 77.536953,1.092172 61.261969,0.09517303 60.23147,0.03079809 59.246483,-5.3208973e-4 58.305775,9.7376814e-4 Z M 175.61433,75.205229 c 0.0886,0.02858 0.0215,0.18209 0.26597,0.08589 20.65481,18.496344 42.90127,36.455021 63.88164,54.537211 l -16.28331,84.82366 c -23.39325,9.33105 -49.16628,18.90615 -72.64425,27.9945 -3.83874,2.18879 -5.75932,0.0457 -8.82495,-2.63827 -19.49782,-15.3201 -39.0013,-32.75992 -57.929076,-48.8534 3.251402,-28.86925 8.0764,-57.00441 13.002961,-85.61327 C 122.38214,95.479317 150.136,85.234329 175.45641,75.232242 c 0.0815,-0.03205 0.12837,-0.03654 0.15792,-0.02701 z m -18.92366,18.536474 c -14.58681,5.653174 -30.41047,12.408897 -44.71902,18.777517 5.34568,5.42097 12.43959,11.39147 18.89803,15.31638 4.46093,-5.55826 8.78997,-12.26567 13.1879,-17.87777 z m 14.88417,1.492643 c -0.007,0.0054 -0.002,0.0076 -0.01,0.01316 -10.19611,12.217574 -19.77355,23.263824 -29.52454,35.844204 15.40831,3.14785 29.99146,5.90605 45.55712,7.99724 -1.42586,-4.48432 -3.12289,-8.83352 -4.93784,-13.01197 -3.81676,-10.28717 -6.78518,-20.98961 -11.0795,-30.830859 h -6.9e-4 c -0.005,-0.0055 -5.5e-4,-0.0066 -0.005,-0.01178 z m 12.79378,3.596888 c 2.10112,6.181336 4.24597,12.349386 6.62789,18.417336 3.29068,6.96551 4.84987,14.64304 7.95638,21.67692 7.26854,-2.67539 17.42773,-5.1637 24.50635,-8.35257 -9.00683,-8.13858 -21.2123,-16.59444 -30.44229,-24.44817 -2.88294,-2.43099 -5.76565,-4.86252 -8.64833,-7.293516 z m -78.17776,21.985136 c -0.43268,0.14252 -0.49356,1.43472 -0.73282,1.88606 -3.01241,15.49544 -5.30153,32.03982 -7.463901,47.69253 7.679091,-9.85249 16.778451,-20.67837 24.042971,-30.94653 0.85554,-1.63132 3.60428,-3.73883 1.09369,-5.10615 -4.86772,-4.63558 -11.01487,-9.19242 -16.36297,-13.21145 -0.24709,-0.28154 -0.43275,-0.36197 -0.57697,-0.31446 z m 120.04518,19.95847 c -6.93372,2.5107 -16.42947,5.61617 -23.18064,8.90529 4.02961,13.34847 8.54055,26.52895 13.26686,39.61841 2.47253,-14.11424 6.71586,-32.21737 9.91378,-48.5237 z m -85.33206,1.03688 c 4.49792,16.72262 9.6444,31.05315 15.01301,47.56855 9.74978,-12.60431 19.98456,-26.22284 29.96783,-38.6217 l -22.98947,-3.99446 z m -9.65058,2.60018 c -1.5312,1.82352 -5.58638,6.55007 -7.40295,9.0078 -7.39225,10.37977 -17.63585,20.33547 -24.534059,31.10585 5.572469,1.20197 13.033879,1.7468 18.628599,2.82182 9.37194,1.60228 19.84996,4.00921 29.24817,5.43239 -1.28726,-3.69149 -2.58362,-8.18906 -4.04017,-11.80885 -3.69492,-10.64185 -7.93445,-24.33285 -11.89959,-36.55901 z m 62.82952,13.32227 c -9.88019,12.56121 -21.2865,24.83896 -30.8087,37.70949 1.93037,0.54219 5.32979,1.19625 7.29352,1.57853 12.86675,2.23087 25.61714,4.44735 38.62932,4.67117 -2.49907,-9.16868 -6.02422,-17.97885 -9.05768,-26.95553 -2.01869,-5.66792 -4.03777,-11.33572 -6.05646,-17.00366 z m -87.2008,39.53667 c 11.47171,9.87875 26.24937,20.8236 38.01771,30.30792 1.14733,-7.60789 2.60567,-15.24561 4.02563,-22.79968 l -25.30358,-4.31447 c -4.86839,-0.81104 -11.8628,-2.44037 -16.73976,-3.19377 z m 50.90846,8.89006 c -1.09948,7.54005 -3.03287,15.64205 -3.59273,23.18825 14.95594,-5.18693 30.49656,-10.8552 45.18309,-16.83188 -1.91589,-0.34982 -3.83139,-0.70102 -5.74754,-1.04797 -11.86672,-2.10042 -23.92195,-3.68227 -35.84282,-5.3084 z"
       transform="matrix(0.74607751,0,0,0.74607751,2.0247593,55.354551)" /></g></svg>
