<svg
        width="212mm"
        height="212mm"
        viewBox="0 0 198.23462 211.66643"
        version="1.1"
        xmlns="http://www.w3.org/2000/svg"><g
        transform="translate(-8.7400353,-55.354983)"><path
       d="M 58.305775,9.7376814e-4 C 51.720824,0.01151476 47.320526,1.6391254 44.894155,4.9291188 43.496159,6.824115 43.071162,8.9450174 43.152162,10.775014 l -3.07048,20.257689 14.530928,13.192052 c 4.734941,2.202761 9.251045,3.513718 12.799324,4.290222 l 3.930048,-26.71865 C 57.29201,18.653333 53.04922,13.980204 52.371222,11.50021 c -0.016,-0.228 -0.05198,-0.451098 -0.105975,-0.678096 0,-0.047 -0.01039,-0.101377 -0.01039,-0.143377 l 0.03117,-0.190477 -0.116364,-0.02147 c -0.016,-0.065 -0.02541,-0.127013 -0.04641,-0.187013 0.011,-0.016 1.366696,-1.6385071 8.595682,-1.2135079 C 74.70391,9.9312653 211.0103,32.238332 243.56524,37.582322 c -1,2.443994 -1.75105,5.630363 -1.85905,9.671355 L 131.20769,30.917032 c 6.13398,26.607946 -1.80987,48.31383 -1.80987,48.31383 -1.872,-5.24299 -14.60158,-14.952055 -14.60158,-14.952055 -10.10998,10.14398 -19.100286,10.832915 -19.100286,10.832915 5.211986,-27.736944 2.625316,-42.40362 0.02632,-49.445606 L 80.207795,23.372087 74.488653,62.269454 114.59814,98.683701 c 20.23712,-7.831209 41.27058,-15.713917 60.85827,-23.451459 0.0815,-0.03205 0.12837,-0.03654 0.15792,-0.02701 0.0886,0.02858 0.0215,0.18209 0.26597,0.08589 20.65479,18.496326 42.9013,36.455048 63.88164,54.537218 l -13.48434,70.24494 20.15725,18.30029 28.20229,-161.591909 c 0.207,-1.192998 -0.0768,-2.417643 -0.78684,-3.403641 -0.712,-0.986998 -1.78952,-1.639336 -2.99152,-1.813336 l -20.19951,-2.984593 c -0.099,-7.937984 3.01879,-10.512239 3.06079,-10.548239 1.538,-1.021998 2.29376,-2.878874 1.90476,-4.680872 -0.394,-1.807996 -1.83761,-3.197762 -3.66061,-3.495762 C 244.84423,28.681214 77.536937,1.092171 61.261969,0.09517303 60.231471,0.03079816 59.246482,-5.3208822e-4 58.305775,9.7376814e-4 Z M 35.686871,60.025988 9.0007749,236.08232 l 0.1295239,0.7349 C 11.217295,248.45318 21.071129,255.0907 36.955097,255.6917 l 4.698881,-31.95987 c -18.203964,-3.759 -23.526957,-12.1427 -23.526957,-12.1427 l 2.291258,-15.0892 c 8.142984,6.659 17.343394,9.68819 23.609382,11.07119 L 62.185953,84.083509 Z M 70.209513,91.36802 46.091733,255.39179 c 0.323998,-0.031 0.652347,-0.0719 0.880347,-0.1039 l 183.60474,28.36644 c 0.233,0.036 0.46118,0.0519 0.68918,0.0519 2.148,0 4.03829,-1.53833 4.41629,-3.72433 l 5.78355,-33.13667 -30.17424,-27.39397 c -19.95903,7.7889 -40.9889,15.65897 -60.45722,23.19518 -3.83873,2.18879 -5.75932,0.0457 -8.82495,-2.63827 -19.4978,-15.32009 -39.00132,-32.75994 -57.929076,-48.8534 2.914985,-25.8822 7.107076,-51.18955 11.490924,-76.76201 z m 86.481157,2.373683 c -10.59353,4.105562 -21.82987,8.794667 -32.67399,13.492657 l 13.23223,12.01318 c 2.26941,-3.18339 4.53019,-6.3822 6.80867,-9.28971 z m 14.88417,1.492643 c -0.007,0.0054 -0.002,0.0076 -0.01,0.01316 -8.99697,10.780704 -17.51256,20.652644 -26.09042,31.468094 l 7.14945,6.49074 c 11.62231,2.2691 23.01116,4.2755 34.97355,5.88261 -1.42586,-4.48432 -3.12289,-8.83352 -4.93784,-13.01197 -3.81676,-10.28716 -6.78518,-20.98962 -11.0795,-30.830859 h -6.9e-4 c -0.005,-0.0055 -5.5e-4,-0.0066 -0.005,-0.01178 z m 12.79378,3.596888 c 2.10112,6.181326 4.24597,12.349396 6.62789,18.417336 3.29068,6.96551 4.84987,14.64304 7.95638,21.67692 7.26853,-2.67539 17.42774,-5.1637 24.50635,-8.35257 -9.00682,-8.13857 -21.21231,-16.59445 -30.44229,-24.44817 -2.88294,-2.43099 -5.76565,-4.86252 -8.64833,-7.293516 z m -79.01724,24.440556 c -2.95852,15.33201 -5.22115,31.6607 -7.357241,47.12317 7.679081,-9.85248 16.778461,-20.67838 24.042971,-30.94653 0.11054,-0.21077 0.2538,-0.4298 0.41213,-0.65385 z m 120.88466,17.50305 c -6.93371,2.5107 -16.42947,5.61617 -23.18064,8.90529 4.02961,13.34846 8.54055,26.52896 13.26686,39.61841 2.47253,-14.11423 6.71586,-32.21739 9.91378,-48.5237 z m -96.11649,4.98286 c -1.86051,2.19886 -4.73905,5.59192 -6.2691,7.662 -7.39224,10.37976 -17.63586,20.33548 -24.534059,31.10585 5.572459,1.20196 13.033879,1.7468 18.628599,2.82182 9.37193,1.60228 19.84997,4.00921 29.24817,5.43239 -1.28725,-3.69149 -2.58363,-8.18906 -4.04017,-11.80885 -3.36691,-9.69713 -7.17365,-21.86265 -10.8253,-33.20801 z m 38.54204,2.00866 11.38841,10.33906 c 1.9504,-2.48099 3.89797,-4.94136 5.83482,-7.34685 z m 25.42133,9.96781 c -1.98661,2.52569 -4.04481,5.03851 -6.1271,7.54841 l 13.00503,11.80677 c -0.27231,-0.78431 -0.55568,-1.56501 -0.82147,-2.35152 -2.01869,-5.66792 -4.03777,-11.33573 -6.05646,-17.00366 z m -47.63504,2.84814 c 3.01022,9.4778 6.19738,18.7332 9.46911,28.79796 2.99221,-3.86828 6.08127,-7.90552 9.14356,-11.90027 z m 25.8106,23.43207 c -3.09961,3.77342 -6.1312,7.57299 -8.98426,11.42928 1.93037,0.54218 5.32979,1.19625 7.29352,1.57853 6.4953,1.12617 12.96127,2.247 19.44591,3.11134 z m -65.37636,13.25646 c 11.47169,9.87874 26.24938,20.82361 38.01771,30.30792 1.14733,-7.60788 2.60567,-15.24562 4.02563,-22.79968 l -25.30358,-4.31447 c -4.86839,-0.81104 -11.86281,-2.44037 -16.73976,-3.19377 z m 50.90846,8.89006 c -1.09948,7.54004 -3.03287,15.64206 -3.59273,23.18825 14.95592,-5.18692 30.49657,-10.85521 45.18309,-16.83188 -1.91589,-0.34982 -3.83139,-0.70102 -5.74754,-1.04797 -11.86671,-2.10041 -23.92196,-3.68227 -35.84282,-5.3084 z"
       transform="matrix(0.74607751,0,0,0.74607751,2.0247593,55.354551)" /></g></svg>
