<?xml version="1.0" encoding="UTF-8" standalone="no"?>
<svg
   height="48"
   viewBox="0 -960 960 960"
   width="48"
   version="1.1"
   id="svg60"
   xml:space="preserve"
   xmlns="http://www.w3.org/2000/svg"
   xmlns:svg="http://www.w3.org/2000/svg"><defs
     id="defs64" /><path
     d="M 225,-99.999998 V -225 H 100 v -250 h 125 v -125 h 250 v 125 h 125 v 250 H 475 V -99.999998 Z M 137.5,-368.75 H 275 q 4.735,0 8.99625,2.25688 4.26125,2.25687 6.62875,5.86812 l 28.75,43.75 37.5,-113.75 q 1.92688,-5.625 6.98562,-9.375 5.05875,-3.75 11.32187,-3.75 4.81751,0 8.56751,2.50001 3.74999,2.49999 6.875,6.24999 L 435,-368.75 h 127.5 v -68.75 h -125 v -125 h -175 v 125 h -125 z m 125,231.25 h 175 v -125 h 125 v -68.75 H 425 q -5,0 -8.75,-2.5 -3.75,-2.5 -6.875,-6.25 l -28.75,-43.125 -38.125,113.75001 q -1.85875,5.62499 -6.97125,9.37499 -5.11188,3.75 -11.15375,3.75 -5,0 -8.75,-2.5 -3.75,-2.5 -6.25,-6.25 L 265,-331.25 H 137.5 v 68.75 h 125 z M 350,-350 Z"
     fill="#fd3311"
     id="path58"
     style="fill:#000000;stroke-width:0.625" /><rect
     style="fill:#000000;stroke-width:16.4461"
     id="rect402"
     width="300"
     height="40"
     x="540"
     y="-740" /></svg>
